<svg xmlns="http://www.w3.org/2000/svg" xmlns:xlink="http://www.w3.org/1999/xlink" id="Layer_1" x="0" y="0" enable-background="new 0 0 1895.34 566.12" version="1.1" viewBox="0 0 1895.34 566.12" xml:space="preserve"><style type="text/css">.st1{fill:#5267d1}.st2{fill:#00b4d2}.st3{fill:#fff}.st6{fill:#c5e9fa}.st20{fill:none;stroke:#5267d1;stroke-width:2;stroke-miterlimit:10}.st26{opacity:.82;fill:#00b4d2}.st27{fill:none;stroke:#f6fbfd;stroke-width:2;stroke-linecap:round;stroke-linejoin:round;stroke-miterlimit:10}.st28{fill:#addcf1}.st29{fill:#f6fbfd}.st30{fill:#f68e1e}.st34{fill:#049cbe}.st35{fill:#465578}.st38{opacity:.7;fill:#9dd9ef}.st41{fill:#94aef7}.st42{opacity:.46;fill:#5569c9}.st46{fill:#e0dcdc}.st47{opacity:.33}.st48{clip-path:url(#SVGID_10_);fill:#e0dcdc}.st51,.st53{fill-rule:evenodd;clip-rule:evenodd;fill:#4c3399}.st53{fill:#fff}.st54{opacity:.24}.st56{fill-rule:evenodd;clip-rule:evenodd;fill:#e2d7bc}.st59{fill:#313daa}.st60{opacity:.31}.st63{opacity:.25}.st65{fill:#5e5696}.st72{opacity:.88}.st73{fill:#625d6f}</style><g><path fill="#00b4d2" d="M448.11,119.53h-91.56c-17.03,0-30.84,14.07-30.84,31.42v11.56c0,17.2,13.56,31.16,30.38,31.41l16.44,0.01 h52.78c2.45,10.61,11.79,18.52,22.95,18.52h7.42c-7.33-3.26-12.73-10.19-13.93-18.52h6.36c17.03,0,30.84-14.07,30.84-31.42v-11.56 C478.95,133.6,465.14,119.53,448.11,119.53z" opacity=".7"/><path d="M964.65,463.11c0.65-0.07,1.16-0.21,1.58-0.36c0,0,0.02,0.01,0.02,0.01s1.01-0.3,1.11-0.59 c0.07-0.21-0.07-0.44-0.17-0.57c-0.03-0.16-0.07-0.32-0.11-0.5c-0.1-0.49-2.3-0.97-2.3-0.97c2.31-0.93,1-1.7-0.65-2.21 c0.02,0,0.04,0.01,0.04,0.01s-0.03-0.01-0.06-0.02c-1.34-0.41-2.9-0.65-2.9-0.65c-0.22-0.03-0.73-0.06-1.41-0.09 c-3.22-0.2-11.15-0.68-14.35-0.81c-12.96-0.52-24.65,0.33-29.07,0.61c-1.53,0.1-3.15,0.16-4.63,0.2c-0.16-0.03-0.3-0.06-0.46-0.09 c-0.18-0.03-0.38-0.06-0.57-0.09c-0.6-0.1-1.21-0.19-1.85-0.27c-0.27-0.04-0.55-0.07-0.82-0.1c-0.71-0.08-1.43-0.15-2.18-0.22 c-0.16-0.01-0.3-0.03-0.46-0.04c-0.89-0.07-1.81-0.12-2.75-0.16c-0.31-0.01-0.62-0.02-0.93-0.04c-0.73-0.03-1.47-0.04-2.23-0.06 c-0.29,0-0.58-0.01-0.87-0.01c-0.94-0.01-1.89,0-2.86,0.01c-0.74-0.12-1.48-0.25-2.24-0.36c0.45-0.02,0.89-0.02,1.33-0.02 c0.29,0,0.59-0.01,0.87-0.01c0.78,0.01,1.55,0.03,2.26,0.06c-1.4-0.11-2.85-0.21-4.31-0.29c-0.47-0.03-0.94-0.05-1.42-0.07 c-0.55-0.03-1.09-0.06-1.65-0.09c-1.66-0.22-3.37-0.42-5.16-0.59c-7.79-0.75-17.07-0.92-27.3-0.02c4.41-0.54,8.82-1.09,13.24-1.63 c-24.85,0.35-52.39,2.59-79.88,6.49c4.28-0.75,8.56-1.51,12.84-2.26c-10.87,0.92-22.11,2.38-33.12,4.29 c-2.59,0.45-17.92,4.46-9.66,3.12c3.03-0.55-3.66,0.95-4.2,1.16c-0.35,0.14-0.91,0.11-0.74-0.03c0.4-0.35-4.05,12.09,2.73,11.56 c0.47-0.02,0.94-0.04,1.41-0.06c0.71-0.03,1.43-0.08,2.14-0.12c3.38-0.15,8.65-0.39,8.69-0.42c0.05-0.03,0.11-0.06,0.16-0.1 c2.24-0.15,4.48-0.29,6.74-0.46c0.37-0.03,0.48,0.08,0.18,0.19c-1,0.35-2.05,0.72-3.2,1.12c-0.22,0.08-0.23,0.17-0.02,0.19 c3.68,0.34,10.97,1.48,15.32,1.15c4.1-0.31,10.08-1.73,14.98-2.48c0.48-0.07,0.61-0.26,0.17-0.26c-1.67,0.03-3.43,0.13-5.24,0.29 c-0.52,0.05-0.5-0.16,0.03-0.25c8.52-1.41,17.51-1.1,19.62,0.82c-0.88-0.77-1.76-1.54-2.63-2.32c6.5,0.73,15.17,0.54,24.11-0.53 c-1.96-0.21-3.92-0.41-5.89-0.62c15.42-0.41,32.67-2.7,49.44-4.95c-3.52,0.41-6.89,0.41-9.18,0.02c12.11-1.61,20.47-1.71,30.49-1.3 c-0.71-0.45-0.87-0.94-1.52-1.24c0.02,0,0.04,0,0.06,0c3.36,1.11,6.68,3.24,9.81,3.39c2.46,0.12,9.09,1.15,9.56,2.42 c0.43,1.18,1.6,1.57,2.94,1.16c3.54-1.08,3.62-3.63,1.42-4.98c0,0,0.01,0,0.01,0c-0.04-0.15-2.24-0.98-1.87-1 c0.26-0.01,2.93-0.2,4.51-0.3c10.23-0.47,28.92-0.34,31.23-0.51c2.71-0.2,5.92-2.49,3.83-2.67c-2.65-0.23-25.13-0.69-24.81-0.86 c0.12-0.06,0.55-0.11,1.07-0.15c0.06,0,0.1-0.01,0.15-0.01c0.08-0.01,0.17-0.01,0.25-0.02c0.56-0.02,15.46-0.26,17.1,0.47 c0.51,0.23,1.98,0.18,1.98,0.18v0C963.15,463.21,963.96,463.19,964.65,463.11z" class="st6"/><g opacity=".26"><path fill="#e6e9fd" d="M1082.15,53.15h-125.3c-15.33,0-27.76,12.67-27.76,28.29v10.41c0,15.48,12.21,28.05,27.35,28.28 c2.21,9.56,10.61,16.69,20.66,16.69h6.68c-6.6-2.93-11.46-9.18-12.54-16.68h110.91c15.33,0,27.76-12.67,27.76-28.29V81.44 C1109.91,65.81,1097.48,53.15,1082.15,53.15z"/></g><g opacity=".22"><path fill="#aebae5" d="M812.39,87.53h142.06c20.43,0,37,16.88,37,37.7v11.12c0,22.29-16.43,40.65-37.63,43.22 c-2.93,13.34-17.33,26.04-31.3,26.04h-9.21c9.1-4.04,18.58-10.72,17.29-25.72H812.39c-20.89,0-37.83-17.26-37.83-38.55v-15.26 C774.57,104.79,791.5,87.53,812.39,87.53z"/></g><g opacity=".29"><path fill="#98aee5" d="M1531.73,92.77h-142.06c-20.43,0-37,16.88-37,37.7v11.12c0,22.29,16.43,40.65,37.63,43.22 c2.93,13.34,17.33,26.04,31.3,26.04h9.21c-9.1-4.04-18.58-10.72-17.29-25.72h118.22c20.89,0,37.83-17.26,37.83-38.55v-15.26 C1569.56,110.03,1552.62,92.77,1531.73,92.77z"/></g><g><path fill="#6e88e5" d="M1279.74,323.35h198.35c22.4,0,40.56,18.51,40.56,41.33v56.54c0,22.62-17.83,40.99-39.95,41.32l-21.63,0.02 h-147.33c-3.23,13.96-15.5,24.36-30.19,24.36h-9.76c9.64-4.28,16.74-13.41,18.32-24.36h-8.37c-22.4,0-40.56-18.51-40.56-41.33 v-56.54C1239.18,341.86,1257.34,323.35,1279.74,323.35z" opacity=".08"/><path d="M1856.99,0h-339.87h-73.21h-272.66h-67.22H823.98H763.5H445.62h-29.39H37.86C16.95,0,0,17.27,0,38.58v194.73 c0,21.12,16.65,38.26,37.29,38.57l20.19,0.01h360.14c3.01,13.03,14.47,22.74,28.18,22.74h9.11c-9-4-15.62-12.52-17.1-22.74h7.81 h234.33c-10.6,6.84-17.65,18.89-17.65,32.62V456.7c0,21.12,16.65,38.26,37.29,38.57l20.19,0.01H925.6 c-3.04,6.11-8.11,11-14.3,13.75h9.11c10.3,0,19.33-5.49,24.46-13.75h135.04c3.01,13.03,14.47,22.74,28.18,22.74h9.11 c-9-4-15.62-12.51-17.1-22.74h7.81c9.25,0,17.72-3.38,24.29-9h176.53l20.19-0.01c20.65-0.31,37.29-17.45,37.29-38.57V295.51 c0-7.35-2.02-14.23-5.52-20.08h83.22h7.91h45.41h339.87l20.45-0.01c20.92-0.31,37.78-17.68,37.78-39.07V39.09 C1895.34,17.5,1878.17,0,1856.99,0z" class="st1"/><path fill="#6e88e5" d="M599.21,97.34H191.45c-20.91,0-37.86,17.27-37.86,38.58v194.73c0,21.12,16.65,38.26,37.29,38.57l20.19,0.01 h186.71c0.75,0,1.4,0.52,1.6,1.24c3.44,12.4,14.59,21.5,27.86,21.5h2.95c1.62,0,2.25-2.06,0.95-3.01 c-5.77-4.18-9.96-10.46-11.53-17.74c-0.22-1.03,0.57-2,1.62-2h177.98c20.91,0,37.86-17.27,37.86-38.58V135.93 C637.07,114.62,620.12,97.34,599.21,97.34z" opacity=".93"/><path fill="#6683dd" d="M1054.9,158.85H647.14c-20.91,0-37.86,17.27-37.86,38.58v152.19c0,21.12,16.65,38.26,37.29,38.57l20.19,0.01 h359.27c0.51,0,0.95,0.35,1.08,0.85c3.31,12.6,14.56,21.89,27.97,21.89h4.68c1.12,0,1.54-1.46,0.6-2.06 c-6.65-4.26-11.48-11.19-13.04-19.32c-0.13-0.7,0.39-1.35,1.1-1.35h6.48c20.91,0,37.86-17.27,37.86-38.58V197.43 C1092.75,176.12,1075.8,158.85,1054.9,158.85z"/><path fill="#5b7dd8" d="M1376.24,113.33h318.06c21.18,0,38.35,17.5,38.35,39.09v209.27c0,21.39-16.86,38.76-37.78,39.07l-20.45,0.01 l-197.25,0c-0.5,0-0.93,0.34-1.05,0.83c-3.34,12.78-14.75,22.21-28.34,22.21l-4.89,0c-1.09,0-1.51-1.43-0.58-2.01 c6.83-4.32,11.79-11.42,13.36-19.75c0.13-0.66-0.4-1.27-1.08-1.27h-78.34c-21.18,0-38.35-17.5-38.35-39.09V152.42 C1337.89,130.83,1355.06,113.33,1376.24,113.33z" opacity=".93"/><path fill="#4256ba" d="M643.9,175.79H444.64c-22.5,0-40.75,18.59-40.75,41.53v56.8c0,22.73,17.92,41.18,40.14,41.51l21.73,0.02 h148.01c3.24,14.03,15.57,24.48,30.33,24.48h9.81c-9.69-4.3-16.82-13.47-18.41-24.48h8.41c22.5,0,40.75-18.59,40.75-41.53v-56.8 C684.65,194.38,666.41,175.79,643.9,175.79z" opacity=".29"/><path fill="#fff" d="M640.13,63.28h188.04c21.24,0,38.45,17.54,38.45,39.19v53.6c0,21.45-16.91,38.86-37.88,39.17l-20.51,0.01 H668.57c-3.06,13.24-14.7,23.1-28.62,23.1h-9.26c9.14-4.06,15.87-12.71,17.37-23.1h-7.93c-21.24,0-38.45-17.54-38.45-39.19v-53.6 C601.68,80.82,618.89,63.28,640.13,63.28z" opacity=".15"/><path fill="#fff" d="M1525.81,54.78h198.35c22.4,0,40.56,18.51,40.56,41.33v56.54c0,22.62-17.83,40.99-39.95,41.32l-21.63,0.02 h-146.56c-0.45,0-0.84,0.31-0.95,0.75c-3.49,13.58-15.58,23.61-30,23.61h-5.74c-0.99,0-1.38-1.31-0.53-1.83 c7.52-4.57,12.99-12.29,14.64-21.38c0.11-0.6-0.37-1.16-0.98-1.16h-7.2c-22.4,0-40.56-18.51-40.56-41.33V96.11 C1485.25,73.28,1503.41,54.78,1525.81,54.78z" opacity=".25"/><g><line x1="1526.29" x2="1721.77" y1="92.58" y2="92.58" class="st20"/><line x1="1526.29" x2="1721.77" y1="107.85" y2="107.85" class="st20"/><line x1="1526.29" x2="1721.77" y1="123.12" y2="123.12" class="st20"/><line x1="1526.29" x2="1721.77" y1="138.4" y2="138.4" class="st20"/><line x1="1526.29" x2="1721.77" y1="153.67" y2="153.67" class="st20"/></g><path fill="#b9cef9" d="M536.5,63.28h-96.79c-18,0-32.59,14.87-32.59,33.22v12.22c0,18.18,14.33,32.94,32.11,33.2l17.38,0.01h54.7 c0.64,0,1.18,0.44,1.35,1.05c2.95,10.68,12.56,18.53,23.99,18.53h2.61c1.34,0,1.94-1.74,0.84-2.52 c-5.02-3.6-8.67-9.04-10.02-15.35c-0.19-0.88,0.48-1.71,1.37-1.71h5.04c18,0,32.59-14.87,32.59-33.22V96.49 C569.09,78.15,554.5,63.28,536.5,63.28z" opacity=".5"/><path fill="#4256ba" d="M1224.84,158.45h173.21c19.56,0,35.42,16.16,35.42,36.1v49.37c0,19.75-15.57,35.79-34.89,36.08l-18.89,0.01 h-127.77c-0.52,0-0.96,0.36-1.1,0.86c-3.11,11.76-13.63,20.42-26.15,20.42h-4.07c-1.12,0-1.58-1.46-0.64-2.08 c6.09-3.98,10.51-10.38,11.96-17.87c0.13-0.69-0.42-1.33-1.13-1.33h-5.96c-19.56,0-35.42-16.16-35.42-36.1v-49.37 C1189.42,174.61,1205.27,158.45,1224.84,158.45z" opacity=".85"/><path fill="#3557b5" d="M345.77,54.65H146.5c-22.5,0-40.75,18.59-40.75,41.53v79.8c0,22.73,17.92,41.18,40.14,41.51l21.73,0.02 h146.72c0.76,0,1.4,0.52,1.6,1.25c3.67,13.39,15.7,23.23,30.01,23.23h3.57c1.62,0,2.27-2.07,0.94-3.01 c-6.41-4.52-11.07-11.43-12.76-19.47c-0.22-1.03,0.58-2,1.63-2h6.42c22.5,0,40.75-18.59,40.75-41.53v-79.8 C386.51,73.24,368.27,54.65,345.77,54.65z" opacity=".7"/></g><g opacity=".2"><path d="M1046.17,54.22h157.27c16.31,0,29.54,13.48,29.54,30.1v8.88c0,17.53-12.73,32.01-29.28,34.41 c-0.46,0.07-0.82,0.4-0.94,0.84c-2.7,10.37-13.91,20.05-24.81,20.05h-2.64c-1.16,0-1.57-1.52-0.57-2.12 c5.49-3.27,10.13-8.34,9.73-17.36c-0.03-0.6-0.54-1.06-1.13-1.06h-137.16c-16.68,0-30.2-13.78-30.2-30.78V84.99 C1015.97,68,1029.49,54.22,1046.17,54.22z" class="st3"/></g><path fill="#4a6ac6" d="M1856.99,0h-339.87h-73.21h-339.87c0,0,0,0,0,0H823.98H763.5H445.62h-29.39H37.86C16.95,0,0,17.27,0,38.58 v194.73c0,21.12,16.65,38.26,37.29,38.57l20.19,0.01h96.11v58.76c0,21.11,16.65,38.26,37.29,38.57l20.19,0.01h186.71 c0.75,0,1.4,0.52,1.6,1.24c3.44,12.4,14.59,21.5,27.86,21.5h2.95c1.62,0,2.25-2.06,0.95-3.01c-5.77-4.18-9.96-10.46-11.53-17.74 c-0.22-1.03,0.57-2,1.62-2h177.98c4.91,0,9.6-0.96,13.9-2.7c6.08,12.66,18.75,21.43,33.46,21.65l15.72,0.01v68.5 c0,21.12,16.65,38.26,37.29,38.57l20.19,0.01H925.6c-3.04,6.11-8.11,11-14.3,13.75h9.11c10.3,0,19.33-5.49,24.46-13.75h135.04 c3.01,13.03,14.47,22.74,28.18,22.74h9.11c-9-4-15.62-12.52-17.1-22.74h7.81c9.25,0,17.72-3.38,24.29-9h138.91 c-0.44,0.22-0.88,0.44-1.33,0.64h9.76c2.13,0,4.21-0.23,6.21-0.64h22.97l20.19-0.01c15.5-0.23,28.74-9.95,34.38-23.71h93.76 l21.63-0.02c22.12-0.33,39.95-18.7,39.95-41.32v-20.46h155.77l20.45-0.01c20.92-0.31,37.78-17.68,37.78-39.07v-86.25h104.46 l20.45-0.01c20.92-0.31,37.78-17.68,37.78-39.07V39.09C1895.34,17.5,1878.17,0,1856.99,0z" opacity=".4"/><g><g><path d="M1087.32,105.77h181.43c17.24,0,31.21,14.24,31.21,31.8v11.7c0,17.13-13.29,31.09-29.94,31.77 c-0.48,0.02-0.88,0.34-1,0.8c-2.75,10.35-12.01,17.98-23.04,17.98l-3.36,0c-1.06,0-1.48-1.37-0.6-1.96 c5.23-3.49,9.02-9.02,10.32-15.47c0.14-0.68-0.36-1.31-1.05-1.31l-163.97,0c-17.24,0-31.21-14.24-31.21-31.8v-11.7 C1056.11,120.01,1070.09,105.77,1087.32,105.77z" class="st26"/></g><path d="M448.11,119.53h-91.56c-17.03,0-30.84,14.07-30.84,31.42v11.56c0,17.2,13.56,31.16,30.38,31.41l16.44,0.01 h51.72c0.62,0,1.15,0.42,1.31,1.02c2.8,10.1,11.89,17.5,22.69,17.5h2.37c1.3,0,1.87-1.67,0.82-2.44c-4.7-3.4-8.12-8.5-9.4-14.43 c-0.18-0.85,0.46-1.66,1.33-1.66h4.73c17.03,0,30.84-14.07,30.84-31.42v-11.56C478.95,133.6,465.14,119.53,448.11,119.53z" class="st26"/><g><line x1="354.27" x2="451.08" y1="142.92" y2="142.92" class="st27"/><line x1="354.27" x2="451.08" y1="157.12" y2="157.12" class="st27"/><line x1="354.27" x2="451.08" y1="171.31" y2="171.31" class="st27"/></g><g><line x1="1088.31" x2="1268.19" y1="129.38" y2="129.38" class="st27"/><line x1="1088.31" x2="1268.19" y1="143.57" y2="143.57" class="st27"/><line x1="1088.31" x2="1268.19" y1="157.76" y2="157.76" class="st27"/></g></g><g><g><g><path d="M637.85,300.17c3.76,0.65,6.3,4.13,8.25,7.42c1.42,2.39,2.76,4.83,4.04,7.31 c3.3-5.91,7.68-11.97,12.87-14.14c0.3-0.13,0.63,0.11,0.61,0.43c-0.38,7.08,1.18,10.89,2.51,12.28c0.24,0.25,0.66,0.14,0.75-0.2 c0.52-2.13,0.21-6,0.09-8.24c-0.03-0.47,0.61-0.64,0.83-0.23c6.87,13.17,14.9,28.88,16.77,43.46c2.81-3.56,4.23-8.44,3.85-13.27 c2.28,7.6,3.82,15.42,4.57,23.3c1.14-2.54,1.73-5.4,1.7-8.29c1.52,9.54,6.5,18.55,13.59,24.58c-0.73-3.54-1.46-7.07-2.19-10.61 c2.1,10.17,30.74,39.32,17.3,51.55c-2.92,2.66-19.49,12.26-38.86,4.83c3.47,0.01,5.54,0.5,8.83-0.04 c-0.01-0.14-0.01-0.08-0.02-0.23c-4.08,0.13-8.25-1.04-11.87-3.36c1.56-0.11,3.11-0.28,4.65-0.49 c-2.85-1.99-13.88-16.61-25.87-14.54c0.71-1.39,2.27-1.95,3.73-2.13c1.98-0.24,3.97,0.03,5.97,0.46 c-0.57-0.71-1.13-1.42-1.69-2.13c-0.05-0.02-0.1-0.05-0.15-0.07c-3.15-1.45,1.28,4.65-2.97,1.66 c-5.53-3.9-20.28-26.15-24.52-31.41c3.61,3.9,8.05,7.02,12.94,9.1c-13.03-13.66-23.89-29.38-32.07-46.4 c-0.22-0.45,0.37-0.85,0.71-0.49c0.56,0.58,1.15,1.14,1.77,1.66c0.37,0.31,0.9-0.11,0.68-0.54c-1.28-2.43,0.65-12.18,2.62-16.41 c2.16-4.64,3.78-9.66,7.13-13.52c0.37-0.43,0.77-0.85,1.28-1.09C636.35,300.04,637.13,300.04,637.85,300.17z" class="st28"/><path d="M667.8,304.81c4.59-1.19,14.93-1.44,19.68-0.97c14.38,6.93,17.13,17.56,17.12,17.56 c0.38,1.06,1.38,1.41,2.25,1.25c0.24-0.04,0.47,0.14,0.49,0.38c1.33,11.86,4.57,23.5,9.59,34.32c-1.11-3.2-0.36-6.97,1.88-9.51 c2.08,11.21,6.39,22,12.61,31.55c3.59,5.52,7.82,10.66,10.68,16.59c5.21,10.81,18.67,76.09,2.24,80.72 c-78.87-64.91-19.5-36.02-64.25-117.24c-5.51-9.99-10.9-20.06-16.11-30.22c-0.09-0.18-0.05-0.41,0.11-0.54 C669.61,324.08,661.23,306.5,667.8,304.81z" class="st29"/><path d="M649.24,310.85c3.76,0.65,6.3,4.13,8.25,7.42c1.42,2.39,2.76,4.83,4.04,7.31 c3.3-5.91,7.68-11.97,12.87-14.14c0.3-0.13,0.63,0.11,0.61,0.43c-0.38,7.08,1.18,10.89,2.51,12.28c0.24,0.25,0.66,0.14,0.75-0.2 c0.52-2.13,0.21-6,0.09-8.24c-0.03-0.47,0.61-0.64,0.83-0.23c6.87,13.17,14.9,28.88,16.77,43.46c2.81-3.56,4.23-8.44,3.85-13.27 c2.28,7.6,3.82,15.42,4.57,23.3c1.14-2.54,1.73-5.4,1.7-8.29c1.52,9.54,6.5,18.55,13.59,24.58c-0.73-3.54-1.46-7.07-2.19-10.61 c2.1,10.17,39.58,82.09,26.14,94.31c-2.92,2.66-19.49,12.26-38.86,4.83c3.47,0.01,5.54,0.5,8.83-0.04 c-0.01-0.14-8.85-42.85-8.86-42.99c-4.08,0.13-23.43-4.5-35.41-2.43c0.71-1.39,4.6-17.92,6.07-18.09 c1.98-0.24,3.97,0.03,5.97,0.46c-0.57-0.71-1.13-1.42-1.69-2.13c-0.05-0.02-0.1-0.05-0.15-0.07 c-3.15-1.45-10.11-6.03-14.36-9.03c-5.53-3.9-8.89-15.46-13.13-20.73c3.61,3.9,8.05,7.02,12.94,9.1 c-13.03-13.66-23.89-29.38-32.07-46.4c-0.22-0.45,0.37-0.85,0.71-0.49c0.56,0.58,1.15,1.14,1.77,1.66 c0.37,0.31,0.9-0.11,0.68-0.54c-1.28-2.43-3.57-4.32-6.19-5.12c-0.39-0.12-0.43-0.64-0.07-0.81c4.14-2,6.91-6.25,8.88-10.48 c2.16-4.64,3.78-9.66,7.13-13.52c0.37-0.43,0.77-0.85,1.28-1.09C647.74,310.72,648.52,310.73,649.24,310.85z" class="st6"/><path d="M716.63,401.74c3.56,2.55,7.74,4.22,12.07,4.83c-1.29-3.26-5-5.37-8.45-4.81c2.83-1.24,5.78-2.35,8.86-2.53 c3.08-0.18,6.36,0.69,8.49,2.92c1.6,1.68,3.16,5.85,1.35,7.96c-1.43,1.67-5.64,0.69-7.56,0.32 C725.68,409.33,720.32,406.26,716.63,401.74z" class="st3"/><path d="M715.98,385.89c2.34,7.73,8.43,14.22,15.99,17.06c-0.54-2.76-1.07-5.52-1.64-8.28 c-0.35-1.72-0.63-3.17-2.29-4.02c-1.59-0.8-3.62-0.98-5.3-1.58C721.58,388.66,716.35,387.11,715.98,385.89z" class="st3"/></g></g><path d="M478.7,520.33c0,0-21.53,16.63-13.44-106.85c7.88-120.28,140.38-111.72,164.64-105.84 s66.15,138.18,70.56,192.57s127.89,37.48,127.89,37.48l-63.73-41.62C764.61,496.08,478.86,519.09,478.7,520.33z" class="st30"/><path fill="#dd7610" d="M532.77,479.83c3.95-2.4,5.24-7.39,5.97-11.9c0.53-3.29,0.95-6.59,1.28-9.91c6.36,5.09,5.61,9.85,12.43,9.95 c0.39,0.01,0.66-0.4,0.49-0.75c-3.6-7.68-3.54-12.6-2.67-14.74c0.16-0.39-1.19,0.88-0.95,1.22c1.53,2.13,4.8,5.22,5.66,7.77 c0.18,0.53,0.97,0.44,1.03-0.12c1.85-17.66,3.85-38.66-0.56-55.66c4.76,2.7,8.54,7.47,10.28,13c-0.83-9.44-2.6-18.8-5.28-27.87 c2.42,2.31,4.37,5.22,5.63,8.44c-2.55-11.26-0.98-23.47,4.31-33.31c0.76,4.25,1.52,8.49,2.28,12.74 c-2.19-12.21,14.38-59.55-6.23-67.12c-4.48-1.65-24.79-2.66-43.28,14.21c3.9-1.56,6.01-3.02,9.97-3.88 c0.05,0.17,0.03,0.1,0.07,0.26c-4.65,1.68-8.83,4.83-11.86,9.01c1.8-0.57,3.63-1.07,5.46-1.52c-2.32,3.47,1.4,25.31-13.03,28.35 c1.42,1.23,3.43,1.15,5.15,0.7c2.33-0.62,4.46-1.8,6.52-3.17c-0.32,1.04-0.64,2.07-0.95,3.11c-0.05,0.05-0.1,0.1-0.14,0.15 c-2.9,3.01-8.69,11.19-12.14,16.41c-4.48,6.78-3.09,21.1-5.51,28.83c2.33-5.93,5.93-11.37,10.5-15.86 c-10.5,47.46-10.5,49.21-6.96,65.74c0.12,0.58,0.79,0.78,1.02,0.23c0.37-0.9,0.79-1.77,1.25-2.63c0.28-0.51,1.07-0.28,1.01,0.29 c-0.36,3.26-2.08,6.38-4.68,8.44c-0.38,0.3-0.2,0.9,0.29,0.93c5.55,0.37,0.98,3.14,5.09,6.96c4.51,4.18,8.58,9.03,14.08,11.82 c0.61,0.31,1.25,0.59,1.93,0.64C531.14,480.64,532.01,480.29,532.77,479.83z"/><g><g><path d="M713.04,522.06c-0.45,0.04-0.89,0.09-1.34,0.13C712.06,522.62,712.65,522.46,713.04,522.06z" class="st6"/><path d="M728.94,500.46c-0.24,0.07-0.47,0.16-0.72,0.22C728.46,500.68,728.7,500.58,728.94,500.46z" class="st6"/><path d="M731.23,498.46c0.53-0.28,1.06-0.56,1.59-0.86C732.29,497.61,731.76,497.98,731.23,498.46z" class="st6"/><g><g><g><path d="M666.61,332.14c4.16,2.37,8.7,4.08,13.39,5.06c-1.53,0.8-3.31,1.12-5.02,0.89 c3.64,2.49,6.79,5.68,9.23,9.35c-1.16-1.28-2.79-2.13-4.5-2.36c4.06,5.49,7.17,11.7,9.12,18.24 c-1.39-1.97-3.06-3.74-4.96-5.23c3.55,6.92,5.58,14.61,5.9,22.38c-1.46-2.14-2.92-4.28-4.39-6.42 c0.27,6.8-0.33,13.63-1.78,20.27c-0.24-0.74-0.48-1.48-0.72-2.23c-2.03,7.3-0.18,19.01,0.22,26.58 c-0.76-1.8,10.74,22.56,9.99,20.77c-3.19,5.12-19.48-18.85-18.68-12.87c-0.7-1.34,21.56,6.09,20.86,4.75 c0.81,8.41-19.13,7.82-14.29,14.75c-1.66-0.47-3.13-1.6-4.01-3.09c2.82,6.97,7.68,13.1,13.82,17.45 c-1.48-0.07-2.96-0.14-4.44-0.2c2.77,4.56,6.21,8.72,10.17,12.31c-7.7,0.28-14.39,7.69-13.88,15.38 c-0.64-1.42-1.28-2.83-1.91-4.25c-6.15,10.37-9.27,35.84-20.3,40.7c-12.28,5.41-27.37,3.01-38.66,10.26 c0.24,3.28,0.35-8.5,0.59-5.21c-3.87-5.4-19.86-7.71-20.96-14.27c-0.91,1.9-1.11,4.12-0.56,6.15 c-4.73-7.28-7.75-15.66-8.77-24.28c-0.68,3.56-0.91,7.2-0.68,10.82c-7.97-9.96-13.26-22.05-15.16-34.66 c-0.03,2.79-0.07,5.57-0.1,8.36c-11.46-12.45-8.66-34.45-8.11-51.36c-0.91,2.35-1.83,4.7-2.74,7.05 c-4.26-11.52-4.41-24.52-0.43-36.14c-1.34,1.34-2.68,2.67-4.01,4.01c-4.58-9.6-2.76-21.89,4.39-29.76 c-2.5,0.51-4.7,2.3-5.71,4.64c0.77-9.88,3.99-19.56,9.29-27.94c-1.53,0.37-2.93,1.26-3.92,2.49 c1.63-9.51,8.28-18.02,17.12-21.91c-2.55-1.58-5.95-1.71-8.61-0.33c6.85-4.98,15.07-8.05,23.5-8.78 c-2.59-2.12-6.13-3.04-9.42-2.43c9.52-6.22,7.29-33.71,18.32-30.93c-2.06-1.21-4.12-2.42-6.19-3.63 c6.53-0.17,27.58,25.79,33.6,28.32c3.99,1.68,16.52-17.01,20.22-14.77C660.87,304.62,659.01,327.81,666.61,332.14z" class="st29"/><g><defs><path id="SVGID_17_" d="M676.69,498.84c-0.68-1.91,18.08,15.62,17.4,13.72c-7.37,12.22-16.13,10.41-28.88,14.84 c-14.19,4.92-64.3-3.76-77.43,3.67c0.16,4.22,0.22-6.93,0.38-2.7c-4.23-7.51-7-1.95-8.04-10.48 c-1.1,2.27-1.4,5.07-0.85,7.75c-5.15-10.04-8.32-21.2-9.18-32.35c-0.9,4.43-1.28,9.03-1.15,13.68 c-8.76-13.97-14.39-30.23-16.13-46.61c-0.13,3.54-0.26,7.09-0.4,10.63c-12.65-17.71-5.77-42.67-4.57-64.13 c-1.12,2.85-2.24,5.7-3.37,8.55c-4.47-15.37-4.21-31.95,0.73-46.13c-1.57,1.49-3.14,2.98-4.72,4.47 c-4.9-12.97-2.42-28.34,6.01-37.22c-2.87,0.25-5.44,2.17-6.67,4.99c1.21-12.47,5.21-24.29,11.54-34.11 c-1.76,0.23-3.39,1.14-4.55,2.55c2.18-11.86,23.22-10.88,33.43-14.41c-2.86-2.43-6.73-3.14-9.82-1.81 c7.98-5.24,17.46-7.83,27.11-7.41c-2.88-3.12-6.89-4.86-10.67-4.61c11.07-6.4,11.84-17.79,24.32-12.47 c-2.31-1.87-4.62-3.74-6.94-5.62c7.45,0.83,15.06,2.54,21.84,6.73c4.5,2.78,8.49,6.57,12.64,10.02 c8.38,6.97,16.4,10.64,24.93,17.37c4.67,3.69,9.79,6.6,15.11,8.6c-1.77,0.78-3.81,0.9-5.76,0.33 c4.07,3.75,7.56,8.33,10.22,13.39c-1.29-1.82-3.11-3.16-5.06-3.73c4.45,7.65,7.78,16.05,9.79,24.71 c-1.52-2.73-3.37-5.25-5.48-7.46c3.82,9.39,5.87,19.52,5.97,29.47c-1.6-2.96-3.19-5.92-4.79-8.88 c0.08,8.7-0.84,17.31-2.72,25.55c-0.25-0.98-0.5-1.97-0.75-2.95c-1.42,4.99,3.83,15.99,3.25,21.27 c-0.34,3.13-2.6,10.32-2.6,10.32s2.86,4.96,2.65,4.33c-3.81,6.02,4.03,12.04,4.56,18.34c-0.76-1.82-11.14,12.61-5.85,22.21 c-1.88-0.87-3.52-2.55-4.47-4.58c2.99,9.34,2.32,9.93,9.18,16.45c-1.69-0.32-3.37-0.65-5.06-0.97"/></defs><clipPath id="SVGID_2_"><use overflow="visible" xlink:href="#SVGID_17_"/></clipPath><path fill="#addcf1" d="M515.59,424.01c2.48-1.67,4.33-4.53,5.04-7.71 c0.12-0.56-0.53-0.9-0.82-0.43c-0.5,0.78-0.96,1.59-1.39,2.43c-0.26,0.51-0.95,0.21-0.85-0.37 c4.13-22.07,11.31-43.41,21.21-62.97c-4.46,3.81-8.21,8.7-10.93,14.25c3.02-7.32,3.59-21.69,8.26-27.79 c3.59-4.69,9.55-11.99,12.4-14.57c0.05-0.04,0.09-0.08,0.14-0.13c0.39-0.99,0.79-1.97,1.19-2.95 c-1.93,1.07-3.89,1.95-5.96,2.24c-1.54,0.21-3.26,0.01-4.32-1.4c12.71-1.01,12.21-23.15,14.63-26.27 c-1.62,0.19-3.25,0.44-4.86,0.75c3.11-3.72,7.07-6.26,11.25-7.27c-0.02-0.17-0.01-0.1-0.03-0.27 c-3.49,0.31-5.47,1.46-9,2.46c17.88-14.14,35.12-10.32,38.76-8.07c17.87,0.7,14.81,17.88,12.17,31.91 c-1.45,7.7-3.34,12.56-5.63,19.99c-3.97,12.86-4.9,30.55-4.26,44.15c-2.91-2.31-4.59-6.47-4.26-10.5 c-2.17,12.4-0.59,13.44,0.4,26.01c3.54,1.04-11.4,4.61-7.82,5.62c0.47,0.13-9.12,0.7,18.85-0.41 c1.85-0.07-3.68,0.53-5.54,0.47c-0.54-0.02-0.68,0.73-0.17,0.9c8.2,2.75,18.38-1.02,22.36-8.81 c-1.63,3.13-3.25,6.26-4.88,9.39c7.79-4.62,17.2-6.45,26.16-5.08c-2.34,1.34-4.68,2.69-7.02,4.03 c16.68-3,33.76,0.49,50.34,3.96c-3.54-0.48-7.25,0.48-10.11,2.61c11.99,2.46,24.69,1.39,36.1-3.06 c-2.07,3.34-5.81,5.6-9.74,5.87c2.79-0.17,16.98,14.21,15.9,22.52c-1.59-2.94-6.01-4.45-9.32-4.92 c1.18,1.5,3.26,3.27,5.3,3.47c-1.99,1.59-4.73,2.19-7.2,1.56c3.98,2.85,7.77,5.97,11.33,9.34 c-1.08-0.24-2.16-0.43-3.25-0.59c-0.19-0.03-0.38-0.05-0.57-0.07c-0.02,0-0.03,0-0.05-0.01c-5.35-0.65-9.67-0.1-9.7-0.1 c1.71,2.01,3.5-7.69,5.53-6c1.46,1.19,2.76,2.13,3.56,2.69c0.28,0.19,0.56,0.39,0.85,0.57c-0.2,0.15-6.45-1.45-9.66-2.22 c-0.38-0.03-0.8-0.1-1.29-0.21c1.16,1.04,2.47,1.91,3.88,2.57c3.47,1.57,6.24,1.29,5.89,1.53c0.54-0.3-0.79,0.71-0.59,0.52 c-0.17,0.15-0.34,0.29-0.51,0.43c-0.19,0.16-0.38,0.33-0.57,0.49c-0.4,0.33-0.81,0.65-1.23,0.97 c-0.21,0.16-0.43,0.32-0.64,0.48c-0.26,0.19-0.53,0.38-0.79,0.57c-0.22,0.16-0.44,0.31-0.67,0.46 c-0.36,0.24-0.73,0.48-1.1,0.72c-0.28,0.17-0.55,0.34-0.83,0.51c-0.3,0.18-0.59,0.35-0.89,0.52 c-0.24,0.14-0.48,0.27-0.72,0.4c-0.3,0.16-0.6,0.32-0.91,0.48c-0.24,0.13-0.48,0.25-0.73,0.37 c-0.44,0.22-0.89,0.43-1.34,0.63c-0.24,0.11-0.49,0.22-0.73,0.32c-0.3,0.13-0.61,0.26-0.91,0.38 c-0.24,0.1-0.49,0.2-0.74,0.3c-0.49,0.19-0.98,0.37-1.48,0.55c-0.22,0.08-0.45,0.15-0.67,0.22 c-0.34,0.11-0.67,0.22-1.01,0.32c-0.25,0.08-0.5,0.15-0.76,0.22c-0.36,0.1-0.71,0.2-1.07,0.29 c-0.26,0.07-0.51,0.13-0.77,0.2c-0.41,0.1-0.82,0.19-1.24,0.28c-0.94,0.7-1.89,1.38-2.85,2.06 c0.21-0.03,0.42-0.07,0.63-0.11c0.01,0,0.01,0,0.02,0c0.2-0.04,0.41-0.09,0.61-0.13c0.01,0,0.03-0.01,0.04-0.01 c0.2-0.05,0.4-0.1,0.59-0.15c0.02-0.01,0.04-0.01,0.06-0.02c0.19-0.05,0.38-0.11,0.57-0.17c0.03-0.01,0.06-0.02,0.09-0.03 c0.18-0.06,0.36-0.11,0.54-0.17c0.05-0.02,0.1-0.03,0.14-0.05c0.16-0.05,0.32-0.11,0.48-0.17c0.08-0.03,0.16-0.06,0.24-0.09 c0.13-0.05,0.25-0.09,0.38-0.14c0.21-0.08,0.41-0.16,0.62-0.24c-0.82,0.42-1.65,0.82-2.48,1.22 c-0.27,0.13-0.55,0.26-0.82,0.38c-0.57,0.27-1.15,0.53-1.73,0.78c-0.31,0.14-0.62,0.27-0.93,0.41 c-0.64,0.27-1.28,0.54-1.92,0.8c-0.22,0.09-0.43,0.18-0.65,0.27c-2.02,1.31-4.08,2.56-6.2,3.72 c-9.24,5.05-19.63,8.42-30.15,8.06c4.41,0.73,8.81,1.46,13.22,2.2c-27.13,5.98-53.06,11.33-80.08,4.86 c4.08,1.55,8.16,3.1,12.24,4.66c-11.21-0.23-22.4-2.4-35.6-5.99c-2.55-0.69-15.74-5.64-7.76-3.09 c2.87,1.17-3.23-2.46-3.65-3.07c-0.27-0.4-0.9-0.16-0.84,0.32c0.15,1.18-4.48-14.01-5.34-5.6 c-3.41-3.48-1.29-18.83-2.64-13.33c-0.28-1.21-0.37-2.73-0.33-4.4c-0.14,0.08-0.28,0.17-0.43,0.24 c-0.71,0.35-1.49,0.58-2.24,0.39c-0.58-0.14-1.09-0.51-1.57-0.9c-4.37-3.53-7.25-8.89-10.59-13.66 c-3.05-4.35,1.2-6.46-3.5-7.6C515.3,424.87,515.22,424.26,515.59,424.01z" clip-path="url(#SVGID_2_)"/></g><path d="M590.16,431.19c4.81-1.23,9.61-3.07,13.66-6.13c1.32-1,2.89-2.54,3.61-3.84 c0.51-0.91,0.56-1.04,0.78-1.94c0.16-0.65,0.08-0.18,0.1-0.78c0.01-0.54-0.04-0.77-0.03-0.77c-0.23-1.32,0.49-2.24,1.37-2.54 c0.24-0.08,0.35-0.4,0.24-0.67c-5.21-13.23-8.56-27.28-9.85-41.42c0.73,3.98,3.44,7.56,6.85,9.03 c-4.17-12.96-6.09-26.68-5.61-40.13c0.27-7.77,1.34-15.48,0.72-23.29c-1.12-14.23-13.33-33.13-30.76-29.13 c-16.06,48.88-7.24,53.14-5.81,101.21c0.4,13.53,0.95,27.07,1.71,40.61c0.01,0.24,0.18,0.46,0.39,0.51 C575.03,433.83,583.28,432.95,590.16,431.19z" class="st6"/><path d="M546.42,468.05c3.95-2.4,5.24-7.39,5.97-11.9c0.53-3.29,0.95-6.59,1.28-9.91 c6.36,5.09,5.61,9.85,12.43,9.95c0.39,0.01,0.66-0.4,0.49-0.75c-3.6-7.68-3.54-12.6-2.67-14.74 c0.16-0.39-1.19,0.88-0.95,1.22c1.53,2.13,4.8,5.22,5.66,7.77c0.18,0.53,0.97,0.44,1.03-0.12 c1.85-17.66,3.85-38.66-0.56-55.66c4.76,2.7,8.54,7.47,10.28,13c-0.83-9.44-2.6-18.8-5.28-27.87 c2.42,2.31,4.37,5.22,5.63,8.44c-2.55-11.26-0.98-23.47,4.31-33.31c0.76,4.25,1.52,8.49,2.28,12.74 c-2.19-12.21,14.38-59.55-6.23-67.12c-4.48-1.65-24.79-2.66-43.28,14.21c3.9-1.56,6.01-3.02,9.97-3.88 c0.05,0.17,0.03,0.1,0.07,0.26c-4.65,1.68-8.83,4.83-11.86,9.01c1.8-0.57,3.63-1.07,5.46-1.52 c-2.32,3.47,1.4,25.31-13.03,28.35c1.42,1.23,3.43,1.15,5.15,0.7c2.33-0.62,4.46-1.8,6.52-3.17 c-0.32,1.04-0.64,2.07-0.95,3.11c-0.05,0.05-0.1,0.1-0.14,0.15c-2.9,3.01-8.69,11.19-12.14,16.41 c-4.48,6.78-3.09,21.1-5.51,28.83c2.33-5.93,5.93-11.37,10.5-15.86c-10.5,47.46-10.5,49.21-6.96,65.74 c0.12,0.58,0.79,0.78,1.02,0.23c0.37-0.9,0.79-1.77,1.25-2.63c0.28-0.51,1.07-0.28,1.01,0.29c-0.36,3.26-2.08,6.38-4.68,8.44 c-0.38,0.3-0.2,0.9,0.29,0.93c5.55,0.37,0.98,3.14,5.09,6.96c4.51,4.18,8.58,9.03,14.08,11.82c0.61,0.31,1.25,0.59,1.93,0.64 C544.79,468.86,545.66,468.51,546.42,468.05z" class="st29"/><g><path d="M575.09,331.34c-1.4,2.03-2.87,4.02-4.42,5.94c2.11-4.65,2.84-17.58,2.46-18.84 c-0.47,3.03-1.44,5.98-2.89,8.69c1.37-2.56,0.82-8.36,0.66-11.22c-0.07-1.24-3.59-19.9-17.18-16.69 c8.16-3.11,13.27-5.45,16.18-9.92c3.83-5.88,40.72-10.36,40.92-9.61c1.94,7.08-10.83,33.84-10.86,33.82 c0.02,0.02-5.8-2.29-3.71,22.65c-0.89-2.94-3.36-3.99-3.47-7.06c-1.38,1.66-4.93,19.9-6.77,21.5 c0.96-4.02-2.19-9.57-3.06-13.61c-3.13,1.54-5.75,2.57-8.52,7.04C575.02,339.34,575.21,335.13,575.09,331.34z" class="st29"/></g><path fill="#1b1a18" d="M561.31,442.52c0.1,0.12,0.22,0.25,0.35,0.37c-0.05,0.11-0.11,0.23-0.16,0.34 C561.45,442.99,561.39,442.76,561.31,442.52z"/></g><path d="M661.36,485.87c-1.51,7.13-3.46,14.26-3.46,14.26s-0.65-7.13-1.94-8.42 C654.67,490.4,661.36,485.87,661.36,485.87" class="st29"/><path d="M648.67,508.06c1.46-1.46,0.81-5.35,0.81-5.35s-3.89,6.48-6.48,7.13 C641.56,510.2,648.67,508.06,648.67,508.06z" class="st28"/><g><polygon points="572.78 262.04 577.75 267.32 576.02 253.02" class="st6"/><polygon points="561.79 236.03 568.19 242.96 574.91 227.4" class="st6"/><polygon points="559.59 228.9 567.05 230.98 580.5 213.21" class="st6"/><path d="M565.94,207.8c0,0,6.67,3.71,5.06,7.43l16.7-13.96C587.7,201.27,581.64,191.22,565.94,207.8z" class="st6"/><path d="M573.56,186.66c0,0,4.61,5.52,2.42,10.2l17.15-2.83C593.14,194.02,594.29,179.32,573.56,186.66z" class="st6"/><path d="M579.82,166c0,0,12.28,11.47,6.16,18.56c0,0,13.01,2.22,13.91,5.72 C599.89,190.28,609.84,170.86,579.82,166z" class="st6"/><path d="M601.72,153.48c0,0,4.87,9.42-2.5,15.79l12.34,14.16C611.57,183.44,624.18,165.91,601.72,153.48z" class="st6"/><path d="M618.97,156.61c0,0-0.36,9.75-3.37,7.6l6.02,4.3C621.62,168.51,625.01,160.46,618.97,156.61z" class="st6"/><path d="M658.33,156.12c0,0-4.11,8.59,0.53,13.64L644,179.15C644,179.15,639.44,160.46,658.33,156.12z" class="st6"/><path d="M681.35,164.24c0,0-9.52,7.45-3.51,16.04l-25.69,3.79C652.15,184.07,656.04,163.48,681.35,164.24z" class="st6"/><path d="M695.34,190.9c0,0-7.87,2.81-7.95,6.73l-20.05-8.9C667.34,188.73,679.67,178.08,695.34,190.9z" class="st6"/><path d="M703.15,211.91c0,0-7.23-1.57-7.16,2.85l-15.29-15.61C680.7,199.15,699.08,202.03,703.15,211.91z" class="st6"/><path d="M709.81,231.73c0,0-9.38-1.84-11.35,2.54l-8.94-18.79C689.52,215.47,704.68,225.1,709.81,231.73z" class="st6"/><path d="M709.4,250.6c0,0-6.86-0.27-9.6,5.17l-10.58-11.99L709.4,250.6z" class="st6"/><path d="M700.65,273.58c-0.87-2.49-6.2-6.34-6.2-6.34l3.43-9.86C697.88,257.38,701.05,267.32,700.65,273.58z" class="st6"/><path d="M569.2,295.07c1.57-2.84,3.47-5.5,5.65-7.91c2.31,6.15,4.17,12.48,5.56,18.9 c0.79-1.59,1.58-3.18,2.36-4.77c4.01,5.17,8.03,10.33,12.04,15.5c1.67-2.27,3.35-4.54,5.02-6.82 c3.96,4.69,7.91,9.39,11.87,14.08c1.79-2.08,3.58-4.16,5.36-6.24c2.27,2.94,4.21,6.15,5.74,9.53 c0.17-2.61,0.74-5.19,1.68-7.62c1.84,2.6,3.68,5.2,5.52,7.79c1.96-1.43,2.21-4.62,4.4-5.65c1.5-0.71,6.25,4,6.81,5.56 c2.15-2.71,4.29-5.42,6.44-8.13c2.37,2.25,4.99,4.24,7.8,5.93c2.49-2.98,4.97-5.96,7.46-8.93c1.58,1.42,3.15,2.83,4.73,4.25 c3.18-5.01,6.36-10.02,9.53-15.03c0.09,2.57,0.19,5.14,0.28,7.71c3.17-8.53,5.96-17.2,8.37-25.97 c-8.52,7.15-17.33,14.47-27.93,17.82c-6.06,1.91-12.56,2.44-18.85,1.52c-17.98-2.61-32.21-16.19-48.92-23.31 c-3.62-1.55-9.71-5.99-13.65-5.77C566.81,278,569.27,287.47,569.2,295.07z" class="st28"/><path d="M572.69,280.69c3.8,5.32,6.67,11.3,8.42,17.6c1.16-1.96,2.32-3.91,3.48-5.87 c4.02,5.63,7.28,11.8,9.67,18.29c0.51-4.4,1.43-8.75,2.73-12.99c4.84,5.36,9.68,10.71,14.52,16.07c0.5-3.75,1-7.49,1.5-11.24 c4.33,2.32,7.56,6.62,8.59,11.42c1.57-1.49,2.53-3.61,2.6-5.77c3.6,2.3,6.5,5.66,8.24,9.56c0.97-2.36,1.94-4.72,2.91-7.07 c2.91,2.63,5.81,5.27,8.72,7.9c1.58-2.1,3.16-4.21,4.74-6.31c1.74,2.14,3.47,4.27,5.21,6.41c4.19-3.28,8.38-6.56,12.58-9.84 c0.19,1.74,1.01,3.41,2.28,4.62c4.14-5.79,8.28-11.59,12.42-17.38c-2.03,5.18-3,10.77-2.85,16.33 c3.67-5.46,6.48-11.5,8.29-17.83c0.99,1.84,3.2,2.32,4.81,3.65c3.94-8.81-0.24-18.44-0.83-28.23 c-7.92-1.24-15.72,2.67-22.32,7.21c-6.61,4.54-12.88,9.93-20.53,12.3c-12.35,3.83-25.56-0.89-37.62-5.55 c-4.19-1.62-8.45-3.28-12.01-6.02c-4.54-3.49-7.68-8.55-12.22-12.05c-4.53-3.5-11.67-4.97-15.66-0.86 c-2.57,2.64-2.96,6.68-2.88,10.36c0.06,3.09-0.41,11.16,2.74,12.58C570.61,287.11,573.19,281.41,572.69,280.69z" class="st6"/><path d="M599.77,244.42c0,0-2.94-27.99,13.59-46.92c0,0,8.46,9.23,7.85,19.05l10.91-13.54l8.43,10.41l6.07-7.74 l9.05,18.29l10.57-15.9l8.06,9.22l4.81-16.32c0,0,16.1,19.62,12.34,48.26l-7.94-2.63l4.17,7.17l-8.63-1.36l1.02,7.5 l-9.72-5.32l4.29,20.16l-5.08-1.68l2.94,9.9l-5.86-2.09l-0.63,11l-6.11-8.79l-5.28,7.76l-6.95-6.05l-10.39,7.65l-3.38-7.55 l-8.69,1.78l5.74-10.89l-6.35,2.62l3.43-13.3l-6.75,3l5.1-17.59l-13.08,4.44l3.32-8.19l-9.83-0.21l4.85-5.8L599.77,244.42z" class="st2"/><polygon points="608.78 197.5 616.85 221.03 627.54 203.02 636.72 221.28 642.7 211.56 650.26 231.59 661.66 208.08 670.69 221.5 679.12 200.97" class="st34"/><circle cx="648.75" cy="244.35" r="2.42" class="st35"/><circle cx="658.74" cy="244.56" r="2.42" class="st35"/><path d="M646.59,248.99c1.46,2.33,4.02,3.9,6.98,3.97c2.95,0.06,5.58-1.4,7.14-3.66L646.59,248.99z" class="st34"/><path d="M630.45,230.84c4.1,0.09,7.43,3.15,8,7.08c0.08-0.44,0.14-0.89,0.15-1.36c0.1-4.57-3.52-8.35-8.09-8.44 c-4.57-0.1-8.35,3.52-8.45,8.09c-0.01,0.46,0.03,0.92,0.09,1.36C622.89,233.67,626.35,230.75,630.45,230.84z" class="st35"/><path d="M670.68,232.04c4.1,0.09,7.43,3.15,8,7.08c0.08-0.44,0.14-0.89,0.15-1.36c0.1-4.57-3.52-8.35-8.09-8.44 c-4.57-0.1-8.35,3.52-8.44,8.09c-0.01,0.46,0.03,0.92,0.09,1.36C663.12,234.87,666.58,231.95,670.68,232.04z" class="st35"/><path d="M632.68,257.96c-0.05,0.5-0.1,1-0.11,1.52c-0.2,9.2,6.85,16.8,15.74,16.99 c8.89,0.19,16.26-7.11,16.45-16.31c0.01-0.51-0.01-1.02-0.04-1.52L632.68,257.96z" class="st35"/><path d="M654.44,277.86c-2.35,1.96-5.66,2.61-8.7,1.42c-0.95-0.37-1.78-0.91-2.5-1.54 c-0.61-0.03-1.23-0.06-1.84-0.11c1.47,2.5,4.16,4.21,7.27,4.28c3.17,0.07,5.97-1.59,7.53-4.1 C655.61,277.83,655.03,277.85,654.44,277.86z" class="st34"/><path d="M690.46,216.76l19.35,14.97c0,0-13.32-21.14-27.65-31.67c0,0,16.42,4.68,20.99,11.86 c0,0-4.75-17.02-32.94-23.13c0,0,13.09-5.23,25.13,2.11c0,0-16.1-19.62-40.73-8.74c0,0,4.27-15.64,26.74-17.92 c0,0-19.55-5.53-36.85,12.19c0,0-0.03-16.92,14.6-20.54c0,0-17.28-1.55-30.53,11.15c0,0-2.92-10.68-9.61-10.43 c0,0,3.78,7.16,1.37,9.47c0,0-11.12-13.61-18.61-12.59c0,0,17.77,15.33,9.23,28.13c0,0-7.41-21.4-31.14-15.62 c0,0,23.88,5.63,19.96,23.25c0,0-3.27-12.66-26.7-2.54c0,0,18.14-1.97,19.14,6.31c0,0-12.44-6.95-26.28,14.78 c0,0,11.22-9.59,20.6-6.64l-13.16,8.37l-13.79,19.37l20-15.31c0,0-16.07,15.79-17.79,22.44l11.56-6.83 c0,0-11.33,14.71-9.75,32.84c0,0,1.99-1.14,2.85-4.27c0,0-0.53,24.77,2.07,31.91l5.18-21.53l9.07,17.5l1.29-5.09l8.31,15.91 l4.6-12.49l12.31,12.85l2.54-8.21l9.1,15.93l2.49-6.24l7.7,8.03l6.04-6.56l3.07,3.61l4.05-5.42l5.3,9.56l10.07-10.8 l3.43,5.19l8.55-13.59l3.82,5.2l7.44-16.76c0,0,9.97,12.02,8.58,21.82c0,0,9.36-14.36,5.54-38.43c0,0,3.76,7.95,3.65,13.45 c0,0,1.87-13.73-0.02-17.31c-1.89-3.58-5.39-10.7-5.39-10.7l14.17,4.99L690.46,216.76z M691.47,249.23l-7.94-2.63l4.17,7.17 l-8.63-1.36l1.02,7.5l-9.72-5.32l4.29,20.16l-5.08-1.68l2.94,9.9l-5.86-2.09l-0.63,11l-6.11-8.79l-5.28,7.76l-6.95-6.05 l-10.39,7.65l-3.38-7.55l-8.69,1.78l5.74-10.89l-6.35,2.62l3.43-13.3l-6.75,3l5.1-17.59l-13.08,4.44l3.32-8.19l-9.83-0.21 l4.85-5.8l-11.88,3.68c0,0-2.94-27.99,13.59-46.92c0,0,8.46,9.23,7.85,19.05l10.91-13.54l8.43,10.41l6.07-7.74l9.05,18.29 l10.57-15.9l8.06,9.22l4.81-16.32C679.12,200.97,695.23,220.6,691.47,249.23z" class="st29"/><g><defs><path id="SVGID_19_" d="M632.68,257.96c-0.05,0.5-0.1,1-0.11,1.52c-0.2,9.2,6.85,16.8,15.74,16.99 c8.89,0.19,16.26-7.11,16.45-16.31c0.01-0.51-0.01-1.02-0.04-1.52L632.68,257.96z"/></defs><clipPath id="SVGID_4_"><use overflow="visible" xlink:href="#SVGID_19_"/></clipPath><path fill="#fafeff" d="M632.05,257.1c0,0,1.65,10.06,4.03,10.11l1.66-5.91l2.92,6.35 l2.68-6.06l1.55,6.83l3.69-5.7l2.39,7.36l3.89-7.22c0,0,2.26,5.48,2.44,4.98c0.18-0.51,3.32-4.18,3.32-4.18l1.24,5.46 c0,0,4.19-4.5,2.87-10.47L632.05,257.1z" clip-path="url(#SVGID_4_)"/></g></g></g><path fill="#20419a" d="M713.04,522.06c-0.45,0.04-0.89,0.09-1.34,0.13C712.06,522.62,712.65,522.46,713.04,522.06z" opacity=".21"/><path d="M566.62,494.61c20.09-15.59,27.44-39.46,39.2-60.41c11.76-20.95,41.24-12.15,54.96,1.98 c13.72,14.13,65.41,48.33,99.96,49.98c23.74,1.14-7.18,21.79-29.71,40.36c-10.45,8.62-10.29,6.83-17.9,9.14 c-24.01,7.31-111.23,13.64-140.63-0.97C543.1,520.07,557.6,501.61,566.62,494.61z" class="st6"/><path d="M771.47,495.64c-0.69-3.8-4.96-6.84-8.56-5.43c0.6-1.09,1.21-2.17,1.81-3.26 c-9.92,1.37-20.28-0.59-29.01-5.51c1.81,0.21,3.7-0.83,4.49-2.48c-9.46-2.41-18.56-6.22-26.92-11.25 c1.73,0.8,3.97,0.33,5.24-1.1c-6.86-3.35-13.99-6.12-21.31-8.28c1.44-0.41,2.89-0.82,4.33-1.23 c-12.63-4.3-21.39-15.55-29.38-26.24c0.01,1.71,0.03,3.42,0.04,5.13c-7.28-7.36-14.57-14.72-21.85-22.08 c-0.11,1.36-0.21,2.71-0.32,4.07c-4.99-4.69-12.3-6.22-19.12-5.61s-13.3,3.12-19.68,5.61c2.59-1.14,5.87-0.47,7.81,1.59 c-7.42,1.2-14.02,6.57-16.7,13.6c0.3-2.73,0.59-5.46,0.89-8.19c-3.83,8.93-6.84,18.21-8.97,27.69 c-0.52-1.11-1.03-2.22-1.55-3.33c-2.93,11.13-7.91,21.72-14.62,31.07c-0.05-1.63-0.09-3.27-0.14-4.9 c-2.91,8.45-9.12,15.72-17.03,19.9c1.32-2.23-3.97,3.91-5.02,10.19c-0.61-1.42-1.22-2.84-1.84-4.25 c-0.92,8.44-1.05,16.96-0.39,25.43c-0.85-0.71-1.71-1.43-2.56-2.14c3.77,9.88,12.74,4.32,22.16,9.03 c29.4,14.7,116.62,8.33,140.63,0.98c7.51-2.3,9.63,0.31,19.31-7.08c8.04-6.14,16.76-12.44,23.24-18.13 c3.67-0.64,7.38-1.61,10.38-3.81C769.96,503.33,772.16,499.44,771.47,495.64z" class="st38"/><path d="M764.61,496.08c-0.69-3.8-4.96-6.84-8.56-5.43c0.6-1.09,1.21-2.17,1.81-3.26 c-9.92,1.37-20.28-0.59-29.01-5.51c1.81,0.21,3.7-0.83,4.49-2.48c-9.46-2.41-18.56-6.22-26.92-11.25 c1.73,0.8,3.97,0.33,5.24-1.1c-6.86-3.35-13.99-6.12-21.31-8.28c1.44-0.41,2.89-0.82,4.33-1.23 c-12.63-4.3-21.39-15.55-29.38-26.24c0.01,1.71,0.03,3.42,0.04,5.13c-7.28-7.36-14.57-14.72-21.85-22.08 c-0.11,1.36-0.21,2.71-0.32,4.07c-4.99-4.69-12.3-6.22-19.12-5.61c-6.82,0.61-13.3,3.12-19.68,5.61 c2.59-1.14,5.87-0.47,7.81,1.59c-7.42,1.2-14.02,6.57-16.7,13.6c0.3-2.73,0.59-5.46,0.89-8.19 c-3.83,8.93-6.84,18.21-8.97,27.69c-0.52-1.11-1.03-2.22-1.55-3.33c-2.93,11.13-7.91,21.72-14.62,31.07 c-0.05-1.63-0.09-3.27-0.14-4.9c-2.91,8.45-9.12,15.72-17.03,19.9c1.32-2.23-3.97,3.91-5.02,10.19 c-0.61-1.42-1.22-2.84-1.84-4.25c-0.92,8.44-1.05,16.96-0.39,25.43c-0.85-0.71-1.71-1.43-2.56-2.14 c3.77,9.88,12.74,4.32,22.16,9.03c29.4,14.7,116.62,8.33,140.63,0.98c7.51-2.3,9.63,0.31,19.31-7.08 c8.04-6.14,16.76-12.44,23.24-18.13c3.67-0.64,7.38-1.61,10.38-3.81C763.11,503.76,765.3,499.88,764.61,496.08z" class="st6"/><path d="M552.1,526.68c0.81,0.19,1.63,0.39,2.44,0.58c-8.23-5.89-14.76-0.14-18.6-9.5 c1.28,1.56,2.55,3.12,3.83,4.68c-1.1-5.49-1.13-11.19-0.07-16.69c-1.14,2.41-2.71,4.61-4.61,6.48 c1.39-6.82,3.34-13.53,5.83-20.03c-1.12,1.32-2.24,2.63-3.36,3.95c-0.32-6.07,2.22-11.87,4.13-17.64 c2.84-8.59,4.35-17.61,4.48-26.65c0.11-7.57-0.96-15.66-5.84-21.45c10.29,14.51,24.7,26.31,31.84,42.61 c4.75,10.84,5.89,22.92,5.93,34.75c0.03,8.05-0.46,16.28-3.45,23.76c-1.52,3.81-4.15-5.54-3.12-1.29 c1.12,4.65,5.46,4.43,7.67,7.79C570.32,540.65,557.77,533.11,552.1,526.68z" class="st6"/><path d="M594.7,493.72c-0.03-0.75-0.05-1.5-0.05-2.26C594.13,492.48,594.3,493.16,594.7,493.72z" class="st6"/><path d="M596.4,495.88c-0.08,0.57-0.16,1.14-0.22,1.73C596.54,496.89,596.55,496.34,596.4,495.88z" class="st6"/><path d="M695.98,505.28c3.07-3.07,6.14-4.61,9.21-7.68c-9.21,1.54-18.42,4.61-27.64,0c0,7.68,7.68,3.07,9.21,6.14 c-15.35,3.07-27.64-7.68-35.31-18.42c-1.54,4.61,1.54,7.68,4.61,10.75c-13.82-6.14-10.75-27.64-27.64-30.71 c1.54,3.07,6.14,6.14,6.14,10.75c-3.07-9.21-12.28-9.21-19.96-6.14c0-3.07,3.07-6.14,3.07-9.21 c-11.82,8.86-19.35,20.57-21.28,35.12c0.16,0.46,0.14,1.01-0.22,1.73c0.06-0.58,0.14-1.15,0.22-1.73 c-0.29-0.86-1.19-1.41-1.7-2.15c0.52,11.35,4.93,21.43,10.69,31.52c-1.54-1.54-3.07-3.07-4.61-4.61 c2.91,17.48,19.65,9.91,29.22,22.33c31.38-0.09,63.82-3.84,77.06-7.89c5.94-1.82,8.53,4.66,14.14-2.06 C717.67,520.04,710.15,508.83,695.98,505.28z" class="st29"/><path d="M676.76,469.77c-24.63,12.85-52.19,20.03-79.97,20.84l13.05,1.27c-10.88,2.72-22.23,3.56-33.4,2.58 c-2.63-0.26-18.38-6.77-10.01-6.4c3.1,0.38-3.76-1.53-4.31-2.03c-0.38-0.32-0.93,0.09-0.72,0.55 c0.26,0.64-10.16-6.34-18.84-10.85c2.29-7.73,3.5-15.8,3.62-23.88c0.06-3.36-0.14-6.83-0.78-10.16 c0.49-0.52,0.81-0.98,0.9-1.33c0.14-0.64,0.35-1.16,0.58-1.56c9.23,11,19.59,21.13,25.3,34.18c0.61,1.36,1.13,2.72,1.62,4.11 c5.41-8.39,9.52-17.66,12.07-27.32c0.52,1.1,1.04,2.23,1.56,3.33c2.11-9.46,5.12-18.76,8.97-27.7 c-0.32,2.75-0.61,5.47-0.9,8.19c2-5.18,6.11-9.46,11.11-11.81c5.44-0.67,10.62-3.85,13.69-8.42c0.4-0.12,0.81-0.17,1.22-0.23 l-1.04,4.78c1.91-1.94,4.02-3.7,6.28-5.21c5.99-0.03,12.07,1.65,16.41,5.73c0.12-1.36,0.23-2.72,0.32-4.08 c7.29,7.35,14.59,14.73,21.85,22.08c0-1.71,0-3.42-0.03-5.12c7,9.38,14.62,19.19,24.89,24.34 c-7.53,7.21-16.61,13.08-26.77,15.46C667.88,470.64,672.34,470.2,676.76,469.77z" class="st38"/></g></g></g><g><g><path fill="#a1d3e5" d="M671.74,504.96c0,0-0.03,5.67,0,7.56c-12.47,4.53-15.73,28.77-25.85,25.36c0.39-10.7,0-32.92,0-32.92 H671.74z"/></g><path d="M1488.41,494.57c-41.56-28.47-134.83-44.39-250.81-44.93l-0.1-0.03H674.17l-4.62,1.26l-4.81-1.26 c-118.8,0-214.6,15.99-256.88,44.96c-9.63,6.6-14.86,5.14-16.16,10.39c0,0-0.21,11.38,0.38,13.26 c8.92,28.72,139.17,35.09,181.44,35.09h55.86c56.35,0,581.17,0,637.52,0h55.86c42.08,0,171.39-6.31,181.32-34.71 c1.33-3.82,0.61-11.13,0.61-11.13C1502.04,503.94,1494.31,498.61,1488.41,494.57z" class="st1"/><path d="M1488.41,485.97c-41.56-28.47-134.83-44.39-250.81-44.93l-0.1-0.03H674.17l-4.62,1.26l-4.81-1.26 c-118.8,0-214.6,15.99-256.88,44.96c-8.96,6.14-13.9,11.65-15.59,16.62C380.44,537.32,528,544.7,573.52,544.7h55.86 c56.35,0,581.17,0,637.52,0h55.86C1374.77,544.7,1560.07,535.05,1488.41,485.97z" class="st41"/></g><g><g><g><path d="M1283.28,491.26l-121.31-19.26c-0.8-0.13-0.85-1.27-0.06-1.45l70.03-16.63l147.23,5.73l22.61,8.51 l-117.08,23.08C1284.23,491.33,1283.75,491.34,1283.28,491.26z" class="st42"/><polygon fill="#7b708c" points="1395.59 444.05 1280.13 472.02 1166.2 447.08 1264.87 424.26"/><g><g><path fill="#67617f" d="M1364.58,469.74l-75.75,18.65l-124.31-18.34c0,0-5.36-2.85-4.96-11.04c0.4-8.19,7.12-11.92,7.12-11.92 l122.78,18.3l74.63-13.02c0,0-4.38,7.6-4.71,14.26C1359.06,473.27,1364.58,469.74,1364.58,469.74z"/><path fill="#8480aa" d="M1393.33,467.02l-104.5,21.38c0,0-5.55-2.2-5.25-12.08c0.24-8.2,5.89-10.93,5.89-10.93l106.13-21.33 c0,0-5.38,4.62-5.7,11.27C1389.56,461.97,1393.33,467.02,1393.33,467.02z"/><path d="M1392.52,464.78l-99.96,20.05c0,0-5.47-0.74-5.14-7.41c0.33-6.66,4.95-9.72,4.95-9.72l101.23-21.61 c0,0-3.63,1.36-3.47,10.72C1390.2,461.63,1392.52,464.78,1392.52,464.78z" class="st46"/><path d="M1392.06,462.89l-97.45,19.79c0,0-4.41-0.38-4.09-7.04c0.33-6.66,4.89-7.79,4.89-7.79l98.17-21.7 c0,0-3.29,3.54-3.46,9.2C1389.96,461.01,1392.06,462.89,1392.06,462.89z" class="st3"/><g class="st47"><defs><path id="SVGID_21_" d="M1391.36,464.78l-98.17,21.7c0,0-4.36-2.31-4.03-8.98c0.33-6.66,4.95-9.72,4.95-9.72 l98.17-21.7c0,0-3-0.15-3.46,9.2C1388.36,464.63,1391.36,464.78,1391.36,464.78z" class="st47"/></defs><clipPath id="SVGID_6_"><use overflow="visible" xlink:href="#SVGID_21_"/></clipPath><polygon fill="#e0dcdc" points="1390.8 449.36 1287.79 470.83 1287.86 469.3 1390.87 447.83" clip-path="url(#SVGID_6_)"/><polygon fill="#e0dcdc" points="1390.6 453.45 1287.59 474.92 1287.66 473.39 1390.67 451.92" clip-path="url(#SVGID_6_)"/><polygon fill="#e0dcdc" points="1390.4 457.54 1287.39 479.01 1287.46 477.48 1390.47 456.01" clip-path="url(#SVGID_6_)"/><polygon fill="#e0dcdc" points="1390.2 461.63 1287.19 483.1 1287.26 481.57 1390.27 460.1" clip-path="url(#SVGID_6_)"/></g></g></g></g><path fill="none" fill-rule="evenodd" d="M1369.54,466.32l-168.45-4.96l-7.7-18.57l0.71-24.14l168.45,4.96l7.7,18.57c0,0-1.39,6.24-1.56,12.03 C1368.52,460.01,1369.54,466.32,1369.54,466.32z" clip-rule="evenodd"/><polygon fill="#625d6f" points="1364.64 467.48 1289.53 463.13 1207.2 468.37 1207.23 459.36 1193.13 443 1195.63 434.23 1363.03 446.2" opacity=".27"/><g><path d="M1370.16,464.05l-168.52-0.68l-8.21-18.35l0.04-24.15l168.52,0.68l8.21,18.35c0,0-1.22,6.18-1.23,12.07 C1368.97,457.87,1370.16,464.05,1370.16,464.05z" class="st51"/><path d="M1201.65,463.37l-8.21-18.35c0,0-1.2-3.58-1.19-10.9c0.01-7.32,1.23-13.25,1.23-13.25l8.21,18.35 c0,0,2.44,6.48,2.43,12.08C1204.11,456.91,1201.65,463.37,1201.65,463.37z" class="st51"/><path fill="#c5d5f9" fill-rule="evenodd" d="M1202.35,462.2l-7.74-17.31c0,0-1.17-2.17-1.16-9.08c0.01-6.9,1.16-12.5,1.16-12.5l7.74,17.31 c0,0,2.3,6.11,2.3,11.39C1204.64,457.31,1202.35,462.2,1202.35,462.2z" clip-rule="evenodd"/><path d="M1370.16,464.05l-168.52-0.68c0,0,1.21-3.43,1.23-11c0.01-7.57-1.18-13.15-1.18-13.15l168.52,0.68 c0,0-1.22,6.6-1.23,12.07C1368.97,457.45,1370.16,464.05,1370.16,464.05z" class="st51"/><path d="M1201.98,462.12c0.36-1.61,0.88-4.79,0.89-9.75c0.01-5.25-0.57-9.29-0.92-11.43l168.1,0.39 c-0.32,1.9-1.07,6.3-1.07,10.64c-0.01,3.83,0.58,8.22,0.93,10.51L1201.98,462.12z" class="st53"/><path d="M1201.98,462.12c0.36-1.61,0.88-4.79,0.89-9.75c0.01-5.25-0.57-9.29-0.92-11.43l168.1,0.39 c-0.32,1.9-1.07,6.3-1.07,10.64c-0.01,3.83,0.58,8.22,0.93,10.51L1201.98,462.12z" class="st53"/></g><g class="st54"><defs><path id="SVGID_23_" d="M1201.98,462.12c0.36-1.61,0.88-4.79,0.89-9.75c0.01-5.25-0.57-9.29-0.92-11.43 l168.1,0.39c-0.32,1.9-1.07,6.3-1.07,10.64c-0.01,3.83,0.58,8.22,0.93,10.51L1201.98,462.12z" class="st54"/></defs><clipPath id="SVGID_8_"><use overflow="visible" xlink:href="#SVGID_23_"/></clipPath><g clip-path="url(#SVGID_8_)"><polygon points="1370.07 444.16 1202.23 443.79 1202.18 445.31 1370.03 445.68" class="st56"/><polygon points="1369.94 448.74 1202.09 448.37 1202.05 449.89 1369.89 450.26" class="st56"/><polygon points="1369.8 453.32 1201.96 452.95 1201.91 454.47 1369.76 454.84" class="st56"/><polygon points="1369.67 457.91 1201.82 457.54 1201.78 459.06 1369.62 459.42" class="st56"/></g></g></g><g><polygon fill="#f4a00b" points="1370.43 417.15 1234.1 424.83 1200.57 398.85 1313.7 396.15"/><g><g><path fill="#1d2a89" d="M1339.48,411.7l-79.29,3.37l-32.59-16.57c0,0-4.15-3.09-3.84-9.48c0.31-6.39,3.99-9.38,3.99-9.38 l112.71-3.22l39.56,17.3c0,0-42.96,3.68-43.22,8.86C1336.55,407.77,1339.48,411.7,1339.48,411.7z"/><polygon points="1261.38 397.17 1227.75 379.63 1340.46 376.42 1380.02 393.72" class="st59"/><path d="M1379.14,411.65l-118.64,3.45c0,0-4.18-2.22-3.87-8.61c0.31-6.39,4.74-9.32,4.74-9.32l118.64-3.45 c0,0-3.31,3.63-3.56,8.81C1376.21,407.71,1379.14,411.65,1379.14,411.65z" class="st59"/><path d="M1376.82,409.85l-114.18,3.67c0,0-3.44-1.81-3.19-7c0.25-5.2,3.9-7.58,3.9-7.58l115.56-3.63 c0,0-2.37-0.09-2.73,7.2C1375.83,409.8,1376.82,409.85,1376.82,409.85z" class="st46"/><path d="M1378.2,409.94l-113.71,3.67c0,0-3.47-1.81-3.21-7c0.25-5.2,3.93-7.58,3.93-7.58l113.71-3.67 c0,0-2.32,2.69-2.46,7.43S1378.2,409.94,1378.2,409.94z" class="st3"/><g class="st60"><defs><path id="SVGID_25_" d="M1378.2,409.92l-114.18,3.67c0,0-3.44-1.81-3.19-7c0.25-5.2,3.9-7.58,3.9-7.58 l114.18-3.67c0,0-2.37-0.12-2.73,7.17C1375.83,409.8,1378.2,409.92,1378.2,409.92z" class="st60"/></defs><clipPath id="SVGID_10_"><use overflow="visible" xlink:href="#SVGID_25_"/></clipPath><polygon points="1377.75 397.89 1259.75 401.38 1259.81 400.18 1377.81 396.7" class="st48"/><polygon points="1377.6 401.08 1259.59 404.57 1259.65 403.37 1377.65 399.89" class="st48"/><polygon points="1377.44 404.27 1259.44 407.75 1259.49 406.56 1377.5 403.08" class="st48"/><polygon points="1377.28 407.46 1259.28 410.94 1259.34 409.75 1377.34 406.27" class="st48"/></g></g><g><path d="M1242.04,438.09l-41.93-21.37c0,0-3.31-0.35-3.05-9.24c0.26-8.89,4.02-8.66,4.02-8.66l41.93,21.37 l96.33-1.41c0,0-2.81,8.52-3.13,15.2L1242.04,438.09z" class="st30"/><path fill="#ffbe00" d="M1369.45,435.05l-126.98,3.07c0,0-3.82,0.42-3.02-8.12c0.6-6.41,3.99-9.78,3.99-9.78l126.98-3.07 c0,0-4.4,3.4-4.72,10.08C1365.38,433.9,1369.45,435.05,1369.45,435.05z"/><path d="M1366.49,432.74l-119.59,3.92c0,0-3.81-0.13-3.48-6.82c0.33-6.69,4.02-7.27,4.02-7.27l119.81-3.42 c0,0-3.27,2.35-3.37,5.8C1363.78,428.39,1366.49,432.74,1366.49,432.74z" class="st46"/><path d="M1366.88,432.81l-117.19,3.49c0,0-4.46,0.52-4.13-6.17s4.9-7.41,4.9-7.41l118.17-3.46 c0,0-2.82,3.73-2.92,7.28C1365.6,430.08,1366.88,432.81,1366.88,432.81z" class="st3"/><g class="st63"><defs><path id="SVGID_27_" d="M1366.49,432.77l-118.11,3.47c0,0-3.1-0.91-2.77-7.6c0.33-6.69,3.54-5.98,3.54-5.98 l119.86-3.41c0,0-3.15,2.27-3.29,6.91C1365.58,430.78,1366.49,432.77,1366.49,432.77z" class="st63"/></defs><clipPath id="SVGID_12_"><use overflow="visible" xlink:href="#SVGID_27_"/></clipPath><polygon fill="#e0dcdc" points="1367.52 423.52 1242.8 426.7 1242.87 425.16 1367.59 421.98" clip-path="url(#SVGID_12_)"/><polygon fill="#e0dcdc" points="1367.32 427.63 1242.6 430.8 1242.67 429.27 1367.39 426.09" clip-path="url(#SVGID_12_)"/><polygon fill="#e0dcdc" points="1367.12 431.73 1242.39 434.91 1242.47 433.37 1367.19 430.2" clip-path="url(#SVGID_12_)"/></g></g></g></g></g><g><g><path d="M1025.32,501.72l-98.69-11.76c-1.95-0.22-3.03-0.69-3.06-1.18c-0.02-0.34,4.84-2.5,4.84-2.5l1.06-1.6 l74.26-17.64c1.53-0.4,3.89-0.53,5.91-0.32l95.47,10.31c0,0,2.61,1.83,3.91,1.83s1.27,1.41,0.14,1.75l-78.68,20.74 C1028.94,501.82,1027.5,501.97,1025.32,501.72z" class="st42"/><path d="M1028.26,499.44l-99.12-11.56c-1.97-0.22-3.06-0.7-3.09-1.19c-0.02-0.34,0.02-3.83,0.02-3.83l4.53-0.63 l75-17.82c1.55-0.41,3.93-0.53,5.97-0.32l97.57,10.4c0,0,1.02,4.02-0.12,4.37l-75.54,20.2 C1031.92,499.54,1030.46,499.68,1028.26,499.44z" class="st65"/><path fill="#928ebc" d="M1028.82,496.05l-99.67-11.87c-3.34-0.38-4.14-1.47-1.58-2.15l78.4-18.71c1.55-0.41,3.93-0.54,5.97-0.32 l94.01,10.38c3.27,0.34,4.26,1.39,1.98,2.08l-73.89,20.21C1032.48,496.16,1031.02,496.3,1028.82,496.05z"/><g><path fill="#dbe7fc" d="M1033.5,492.71l-90.05-10.8c-1.15-0.13-1.45-0.51-0.6-0.75l66.9-16.03c0.54-0.15,1.41-0.2,2.15-0.12 l86.48,9.8c1.16,0.12,1.5,0.49,0.68,0.74l-64.48,17.04C1034.03,492.75,1034.27,492.79,1033.5,492.71z"/></g><g><path d="M989.41,489.19c-1.26,0.65-4.74,0.91-7.79,0.58c-3.05-0.33-4.48-1.12-3.2-1.77 c1.28-0.65,4.77-0.91,7.79-0.59C989.23,487.75,990.67,488.54,989.41,489.19z" class="st65"/></g><path d="M987.44,488.91c-0.78,0.4-2.95,0.57-4.84,0.36c-1.89-0.2-2.78-0.7-1.99-1.1c0.79-0.41,2.96-0.57,4.84-0.36 C987.34,488.01,988.23,488.51,987.44,488.91z" class="st3"/><g><path d="M1062.91,470.17c-0.02,0-0.04,0-0.06,0l-14.53-1.49c-0.31-0.03-0.54-0.31-0.51-0.63 c0.03-0.31,0.32-0.54,0.63-0.51l14.53,1.49c0.31,0.03,0.54,0.31,0.51,0.63C1063.45,469.95,1063.2,470.17,1062.91,470.17z" class="st65"/></g></g></g><g><g><path d="M888.56,452.84l-33.69-4.73l-189.95,18.87l-6.38,1.83c-1.56,0.45-1.12,2.8,0.55,2.98l62.48,6.49 c-5.49,4.76-8.41,9.76-8.88,15.2c-1.05,12.21,10.58,23.61,21.83,34.63c9.29,9.1,18.06,17.7,17.9,25.18l3.07,0.07 c0.19-8.81-9.05-17.86-18.82-27.44c-10.74-10.52-21.84-21.41-20.92-32.17c0.46-5.29,3.79-10.21,10.16-15.01l39.93,4.15 c3.64,0.38,7.26,0.26,10.76-0.35l112.36-26.73C890.61,455.49,890.28,453.02,888.56,452.84z" class="st42"/><path d="M754.18,479.92l-89.89-9.5c-2.77-0.29-3.36-7.33-0.71-7.88l100.62-17.39c0.28-0.05,0.57-0.07,0.86-0.07 l113.97,0.48c2.7,0.01,4.89,2.21,4.89,4.91v0.1c-0.91,2.46-23.44,6.18-49.08,12.32C805.67,469.89,757.75,480.95,754.18,479.92z" class="st59"/><line x1="729.33" x2="716.69" y1="475.05" y2="473.67" fill="none" stroke="#333d61" stroke-linecap="round" stroke-miterlimit="10" stroke-width="3.072"/><path fill="#c1c7e5" d="M757.19,475.7l-91.73-9.69c-2.98-0.31-3.61-4.57-0.77-5.16l99.55-23.3c0.25-0.05,0.51-0.06,0.77-0.04 l118,7.18L757.19,475.7z"/><path fill="none" stroke="#fff" stroke-linecap="round" stroke-linejoin="round" stroke-miterlimit="10" stroke-width="2.048" d="M722.9,474.3c-29.94,3.66,30.69,33.04,35.38,57.73c2.22,11.71-0.64,18.92-3.05,25.54"/></g><g opacity=".37"><g class="st72"><g><polygon points="845.65 430.47 854.59 428.19 850.89 427.73 841.95 430.01" class="st73"/><polygon points="835.77 432.98 844.72 430.7 841.02 430.24 832.08 432.52" class="st73"/><polygon points="825.9 435.49 834.84 433.22 831.15 432.76 822.21 435.03" class="st73"/><polygon points="816.03 438.01 824.97 435.73 821.27 435.27 812.33 437.54" class="st73"/><polygon points="806.16 440.52 815.1 438.24 811.4 437.78 802.46 440.06" class="st73"/><polygon points="796.28 443.03 805.22 440.76 801.53 440.29 792.59 442.57" class="st73"/><polygon points="786.41 445.54 795.35 443.27 791.66 442.81 782.72 445.08" class="st73"/><polygon points="776.54 448.06 785.48 445.78 781.78 445.32 772.84 447.6" class="st73"/><polygon points="766.67 450.57 775.61 448.29 771.91 447.83 762.97 450.11" class="st73"/><polygon points="756.79 453.08 765.73 450.81 762.04 450.35 753.1 452.62" class="st73"/><polygon points="746.92 455.6 755.86 453.32 752.17 452.86 743.23 455.13" class="st73"/><polygon points="737.05 458.11 745.99 455.83 742.29 455.37 733.35 457.65" class="st73"/><polygon points="727.18 460.62 736.12 458.35 732.42 457.88 723.48 460.16" class="st73"/><polygon points="717.3 463.13 726.24 460.86 722.55 460.4 713.61 462.67" class="st73"/></g><g><polygon points="854.93 431.19 862.72 429.21 856.07 428.38 848.28 430.36" class="st73"/><polygon points="845.34 433.63 853.13 431.65 846.48 430.82 838.69 432.8" class="st73"/><polygon points="835.75 436.07 843.54 434.09 836.89 433.26 829.1 435.24" class="st73"/><polygon points="826.16 438.51 833.95 436.53 827.3 435.7 819.51 437.68" class="st73"/><polygon points="816.57 440.95 824.36 438.97 817.71 438.14 809.92 440.12" class="st73"/><polygon points="806.98 443.39 814.77 441.41 808.12 440.58 800.33 442.56" class="st73"/><polygon points="797.39 445.83 805.18 443.85 798.53 443.02 790.74 445" class="st73"/><polygon points="787.8 448.27 795.59 446.29 788.94 445.46 781.15 447.44" class="st73"/><polygon points="778.21 450.71 786 448.73 779.35 447.9 771.56 449.88" class="st73"/><polygon points="768.62 453.16 776.41 451.17 769.76 450.34 761.97 452.33" class="st73"/><polygon points="759.03 455.6 766.82 453.61 760.17 452.78 752.38 454.77" class="st73"/><path fill="#625d6f" d="M732.49,453.47l19.17-4.46c0.68-0.16,0.53-1.17-0.18-1.27l-15.54-2.24c-0.08-0.01-0.16-0.01-0.23,0.01 l-19.17,4.46c-0.68,0.16-0.53,1.17,0.18,1.27l15.54,2.24C732.33,453.49,732.41,453.48,732.49,453.47z" opacity=".52"/><polygon points="749.44 458.04 757.23 456.06 750.58 455.22 742.79 457.21" class="st73"/><polygon points="739.85 460.48 747.64 458.5 740.99 457.67 733.2 459.65" class="st73"/></g><g><polygon points="743.75 460.05 735.96 462.03 742.61 462.86 750.4 460.88" class="st73"/><polygon points="753.38 457.59 745.6 459.58 752.25 460.41 760.04 458.43" class="st73"/><polygon points="763.02 455.14 755.23 457.12 761.88 457.95 769.67 455.97" class="st73"/><polygon points="772.65 452.69 764.87 454.67 771.52 455.5 779.31 453.52" class="st73"/><polygon points="782.29 450.24 774.5 452.22 781.15 453.05 788.94 451.07" class="st73"/><polygon points="791.93 447.79 784.14 449.77 790.79 450.6 798.58 448.62" class="st73"/><polygon points="801.56 445.33 793.77 447.32 800.42 448.15 808.21 446.16" class="st73"/><polygon points="811.2 442.88 803.41 444.86 810.06 445.69 817.85 443.71" class="st73"/><polygon points="820.83 440.43 813.04 442.41 819.69 443.24 827.48 441.26" class="st73"/><polygon points="830.47 437.98 822.68 439.96 829.33 440.79 837.12 438.81" class="st73"/><polygon points="840.1 435.52 832.31 437.51 838.96 438.34 846.75 436.35" class="st73"/><polygon points="849.74 433.07 841.95 435.05 848.6 435.88 856.39 433.9" class="st73"/></g><g><polygon points="751.63 461.03 743.85 463.01 750.5 463.84 758.28 461.86" class="st73"/><polygon points="761.27 458.58 753.48 460.56 760.13 461.39 767.92 459.41" class="st73"/><polygon points="770.9 456.13 763.12 458.11 769.77 458.94 777.55 456.96" class="st73"/><polygon points="780.54 453.67 772.75 455.66 779.4 456.49 787.19 454.5" class="st73"/><polygon points="790.17 451.22 782.39 453.2 789.04 454.03 796.82 452.05" class="st73"/><polygon points="799.81 448.77 792.02 450.75 798.67 451.58 806.46 449.6" class="st73"/><polygon points="809.44 446.32 801.66 448.3 808.31 449.13 816.1 447.15" class="st73"/><polygon points="819.08 443.86 811.29 445.85 817.94 446.68 825.73 444.7" class="st73"/><polygon points="828.71 441.41 820.93 443.39 827.58 444.22 835.37 442.24" class="st73"/><polygon points="838.35 438.96 830.56 440.94 837.21 441.77 845 439.79" class="st73"/><polygon points="847.98 436.51 840.2 438.49 846.85 439.32 854.64 437.34" class="st73"/><polygon points="857.62 434.06 849.83 436.04 856.48 436.87 864.27 434.89" class="st73"/></g><g><polygon points="768.73 459.55 760.94 461.53 767.6 462.37 775.38 460.38" class="st73"/><polygon points="778.38 457.1 770.59 459.08 777.24 459.91 785.03 457.93" class="st73"/><polygon points="788.02 454.64 780.24 456.62 786.89 457.45 794.68 455.47" class="st73"/><polygon points="797.67 452.19 789.88 454.17 796.53 455 804.32 453.02" class="st73"/><polygon points="807.32 449.73 799.53 451.71 806.18 452.54 813.97 450.56" class="st73"/><polygon points="816.96 447.28 809.18 449.26 815.83 450.09 823.61 448.11" class="st73"/><polygon points="826.61 444.82 818.82 446.8 825.47 447.63 833.26 445.65" class="st73"/><polygon points="836.26 442.37 828.47 444.35 835.12 445.18 842.91 443.2" class="st73"/><polygon points="845.9 439.91 838.11 441.89 844.77 442.72 852.55 440.74" class="st73"/><polygon points="855.55 437.46 847.76 439.44 854.41 440.27 862.2 438.29" class="st73"/><polygon points="865.19 435 857.41 436.98 864.06 437.81 871.85 435.83" class="st73"/></g></g><g class="st72"><g><polygon points="731.94 459.98 738.57 460.8 725.39 464.16 718.76 463.33" class="st73"/></g><g><polygon points="851.02 432.75 864.2 429.39 870.83 430.22 857.65 433.57" class="st73"/></g><g><polygon points="858.9 433.73 872.08 430.38 878.71 431.2 865.53 434.56" class="st73"/></g><g><polygon points="866.47 434.68 879.65 431.32 886.29 432.15 873.11 435.5" class="st73"/></g><g><polygon points="741.31 463.19 739.73 463.59 747.25 464.53 741.04 466.11 733.52 465.17 733.52 465.17 726.87 464.34 734.66 462.36" class="st73"/></g><g><polygon points="765.61 462.86 748.95 467.1 742.3 466.27 758.96 462.03" class="st73"/></g><g><polygon points="878 434.71 884.65 435.54 876.86 437.52 870.21 436.69" class="st73"/></g><g><polygon points="868.91 437.02 875.56 437.85 867.78 439.83 861.12 439" class="st73"/></g><g><polygon points="859.83 439.33 866.48 440.16 858.69 442.15 852.04 441.32" class="st73"/></g><g><polygon points="798.61 454.92 805.26 455.75 795.08 458.34 788.43 457.51" class="st73"/></g><g><polygon points="786.73 457.94 793.38 458.77 783.2 461.36 776.55 460.53" class="st73"/></g><g><polygon points="820.76 449.24 827.15 450.04 817.36 452.53 810.97 451.73" class="st73"/></g><g><polygon points="809.34 452.15 815.73 452.95 805.94 455.44 799.54 454.64" class="st73"/></g><g><polygon points="842.68 443.49 849.07 444.29 839.28 446.78 832.89 445.98" class="st73"/></g><g><polygon points="851.41 441.44 857.81 442.24 850 444.15 843.61 443.36" class="st73"/></g><g><polygon points="831.25 446.4 837.65 447.2 827.86 449.69 821.46 448.89" class="st73"/></g><g><polygon points="779 461.24 782.13 461.63 774.42 463.6 771.29 463.21" class="st73"/></g><g><polygon points="770.34 463.45 773.46 463.84 765.75 465.8 762.62 465.41" class="st73"/></g><g><polygon points="759.06 464.97 766.77 463 769.9 463.39 762.19 465.36" class="st73"/></g><g><polygon points="764.8 466.05 757.08 468.01 753.95 467.62 761.67 465.65" class="st73"/></g></g></g><g><path d="M924.45,356.78L924.45,356.78c1.81,1,1.52,3.25,0.6,5.11l-45.31,84.67l-103.91,25.27 c-0.66,0.16-1.36,0.09-1.97-0.21l0,0c-1.44-0.7-2.06-2.41-1.39-3.87l43.31-85.77c1.08-2.36,3.22-4.06,5.76-4.59l100.26-21.01 C922.7,356.19,923.64,356.33,924.45,356.78z" class="st41"/><path d="M882.29,447.65l-105.21,24.83c-1.41,0.33-2.59-1.1-1.99-2.42l43.8-87.15c0.76-1.66,2.26-2.87,4.04-3.27 l101.55-22.19c1.34-0.29,2.44,1.05,1.9,2.31l-41.14,85.42C884.71,446.42,883.61,447.34,882.29,447.65z" class="st59"/><ellipse cx="850.03" cy="418.68" fill="#bfc6db" opacity=".32" rx="9.27" ry="5.6" transform="matrix(0.3879 -0.9217 0.9217 0.3879 134.4305 1039.7736)"/></g></g><path d="M771.92,462.54c-0.26-0.3-1.56-0.77-4.55-1.6c-0.44-0.12-0.91-0.25-1.42-0.38c1.05,0.09,1.91,0.1,2.63,0.07 c0.21,0,0.34-0.01,0.37-0.02c1.37-0.1,2.05-0.41,2-0.76c0-0.01,0-0.01,0-0.02c-0.05-0.21-2.2-0.77-5-1.42 c-4.65-1.08-11.1-2.4-12.71-2.75c-2.57-0.56-12-0.41-15.94-0.58c-3.93-0.18-17.08,0.19-26.64,0.85c-0.14,0.01-0.29,0.02-0.43,0.03 c1.84-0.65,1.73-1.19,1.73-1.19c-0.72,0.29-6.67,0.56-12.38,0.75c1.13-0.32,1.93-0.8,3.32-1.27 c-11.88,0.81-55.59,12.38-72.51,12.61c2.49-0.28,4.99-0.56,7.48-0.85c-8.71-0.68-18.27-0.51-26.59,0.47 c2.01-0.79,4.02-1.58,6.03-2.37c-4.94,1.97-15.51,2.64-23.3,1.61c-0.48-0.06-0.24-0.26,0.29-0.24c1.83,0.08,3.7,0.1,5.55,0.06 c0.48-0.01,0.59-0.19,0.15-0.24c-4.56-0.53-9.45-1.67-13.69-1.81c-4.49-0.14-14.24,1.27-18.86,1.75 c-0.27,0.03-0.38,0.12-0.23,0.18c0.77,0.35,1.47,0.66,2.14,0.96c0.2,0.09-0.06,0.2-0.45,0.19c-2.34-0.07-4.68-0.12-7.03-0.17 c-0.01-0.03-0.03-0.06-0.05-0.09c-0.01-0.03-5.66-0.04-9.29-0.05c-0.76-0.01-1.51-0.02-2.27-0.03c-0.63,0-1.12,0-1.51,0 c-6.97-0.24-9.65-3.65-14.65-1.82c-2.18,0.8-3.66,13.52-3.66,13.2c0-0.13,0.66-0.18,0.88-0.06c0.34,0.18,5.93,1.37,3.23,0.96 c-7.6-0.96,4.48,2.31,6.82,2.65c9.94,1.41,20.74,2.37,31.84,2.82c-3.85-0.56-7.7-1.12-11.56-1.68c25.98,2.68,54.2,3.73,81.87,3.05 c-4.28-0.35-8.55-0.7-12.83-1.05c10.39,0.46,35.98-3.36,39.82-8.91c-0.24,0.35,0.06-0.29,1.13-0.33c0.34-0.01,0.68-0.03,1.02-0.05 c0.87-0.04,1.73-0.09,2.59-0.15c0.37-0.02,0.73-0.05,1.1-0.07c1.12-0.08,2.23-0.17,3.33-0.27c0.19-0.02,0.38-0.04,0.57-0.06 c0.93-0.09,1.86-0.19,2.76-0.3c0.36-0.04,0.71-0.09,1.07-0.13c0.83-0.11,1.64-0.22,2.45-0.34c0.25-0.04,0.51-0.07,0.76-0.11 c0.88-0.14,1.74-0.28,2.58-0.44c-0.22,0.04,1.22-0.18,0.65-0.12c0.19-0.03-0.43-0.05-1.49-0.13c0.23,0.01,0.47,0.02,0.73,0.03 c5.77,0.24,20.18-9.86,30.53-10.17c7.06-0.21,10.59-0.14,12.61,0.09c3.68,0.42,13.22,1.08,14.89,1.18 c1.67,0.1,4.27-0.45,3.54-0.94c-0.06-0.04-0.24-0.1-0.5-0.18c-0.52-0.15-1.38-0.37-2.38-0.59c-0.96-0.21-2.03-0.43-3.06-0.61 c-2.05-0.36-9.28-1.3-9.28-1.3s3.9-0.04,5.93,0.2c0.49,0.07,1.23,0.19,2.07,0.34c2.03,0.38,4.54,0.94,6.17,1.18 c0.18,0.03,0.36,0.07,0.54,0.1c0.39,0.12,4.5,1.39,5.28,1.59c0.87,0.23,2.09,0.27,2.12,0.25l-0.01,0 c1.66,0.04,3.52-0.19,4.34-0.46c0.19-0.06,0.17-0.18,0.01-0.32c-0.49-0.43-2.3-1.12-3.41-1.52c0.27,0.01,0.53,0.02,0.79,0.05 c-0.99-0.21-1.68-0.37-1.68-0.37s0,0,0,0c0.01,0,2.07,0.45,4.26,0.89c1.4,0.29,2.7,0.56,3.1,0.63c0.34,0.06,0.67,0.1,1,0.14 c0.39,0.06,0.7,0.1,0.88,0.11c0.59,0.02,1.03,0,1.34-0.02c1.02-0.03,1.91-0.15,2.57-0.28 C771.87,462.83,772.07,462.72,771.92,462.54z" class="st42"/><g><g><g><path fill="none" d="M758.54,452.89c-0.52-0.69-0.89-1.15-0.89-1.15s0.69,0.56,1.68,1.34 C759.07,452.98,758.81,452.91,758.54,452.89z"/><path d="M674.06,430.59c0,0,26.41,3.28,35.97,0.87c9.56-2.41,22.71-3.75,26.64-3.11 c3.93,0.64,13.36,0.09,15.94,2.13c1.61,1.27,8.06,6.13,12.71,10.1c-1.12,2.16,2.59,5.36,2.59,5.36 c0.27,0.22,1.31,0.65,2.41-0.06c0.08,2.01-1.6,3.63-5,2.59c0.51,0.5,0.98,0.97,1.42,1.41c-0.09,0.08-0.17,0.16-0.25,0.26 c-1.83,2.22,2.54,5.68,2.54,5.68c0.26,0.2,1.23,0.55,2.26-0.06c0.15,0.64-0.05,1.05-0.49,1.37c-1.29,0.93-3.43,1.76-5.79,0.22 c-0.98-0.64-7.37-5.6-7.37-5.6s0.37,0.46,0.89,1.15c-0.42-0.03-0.84,0.06-1.26,0.33c-2.42,1.56,0.55,5.96,0.55,5.96 c0.23,0.33,1.44,1.2,3.12,0.1c0.37-0.24,0.71-0.52,0.99-0.82c0.16,0.51,0.18,0.92-0.01,1.16c-1.05,1.28-3.8,2.34-5.66,1.33 s-4.35-5.54-6.62-6.76c-2.26-1.22-6.21-4.68-8.24-5.56c-2.03-0.88-5.93-0.74-5.93-0.74s7.23,3.47,9.28,4.79 c1.02,0.66,2.1,1.46,3.06,2.24c-0.75-0.31-1.58-0.36-2.25,0.33c-1.64,1.68,1.23,4.38,1.23,4.38c0.22,0.2,1.27,0.6,2.4-0.57 c0.6-0.61,1.04-1.35,1-1.98c0.26,0.29,0.44,0.52,0.5,0.67c0.74,1.81-1.86,3.83-3.54,3.47c-1.67-0.36-11.21-2.82-14.89-4.35 c-2.02-0.84-5.55-1.09-12.61-0.31c-10.35,1.14-17.44,3.15-23.21,2.28c-5.77-0.87-3.92-2.67-10.51-2.87 c-6.59-0.19-16.49-0.33-16.49-0.33L674.06,430.59z" class="st2"/><path d="M767.91,445.94c0,0-3.71-3.2-2.59-5.36c2.8,2.39,4.96,4.46,5,5.23c0,0.03,0,0.05,0,0.07 C769.22,446.59,768.18,446.17,767.91,445.94z" class="st34"/><path d="M769.03,455.82c0,0-4.38-3.46-2.54-5.68c0.08-0.1,0.17-0.18,0.25-0.26c2.98,3.03,4.29,4.78,4.55,5.87 C770.26,456.37,769.29,456.02,769.03,455.82z" class="st34"/><path d="M760.96,459.29c-1.68,1.09-2.9,0.23-3.12-0.1c0,0-2.97-4.4-0.55-5.96c0.42-0.27,0.84-0.36,1.26-0.33 c1.11,1.47,2.92,4.01,3.41,5.58C761.67,458.77,761.33,459.05,760.96,459.29z" class="st34"/><path d="M749.21,459.07c-1.14,1.17-2.18,0.77-2.4,0.57c0,0-2.87-2.71-1.23-4.38c0.67-0.69,1.5-0.64,2.25-0.33 c1,0.81,1.86,1.6,2.38,2.17C750.26,457.72,749.81,458.46,749.21,459.07z" class="st34"/></g><g><path d="M765.34,448.45c0,0-9.88-8.84-11.85-10.12c-1.97-1.28-8.16-3.83-11.27-4.4 c-3.11-0.57-5.63-1.07-5.63-1.07s12.87,1.22,15.06,2.15c2.2,0.93,15.63,12.2,16.67,13.6 C768.56,448.93,765.34,448.45,765.34,448.45z" class="st34"/><path d="M732.83,437.18c0,0,10.23,0.84,10.94,1.36c0.71,0.52,11.04,9.61,11.72,10.34 c0.68,0.73,2.16,2.86,2.16,2.86s7.95,6.35,9.24,6.51c1.3,0.16,1.9-0.34,1.9-0.34l-12.23-10.48c0,0-10.52-9.12-11.9-9.58 C743.28,437.4,732.83,437.18,732.83,437.18z" class="st34"/><path d="M757.61,461.34l-2.39-3.96c0,0-2.87-4.23-4.27-4.97s-8.02-5.51-9.64-5.71 c-1.62-0.2-15.94-1.91-17.05-1.97s-3.17,0.47-3.17,0.47s5.48,0.39,8.41,1.11c2.93,0.72,6,1.6,6,1.6s3.79-0.32,5.93,0.74 s8.74,5.89,8.74,5.89s4.5,5.09,5.32,5.89C756.36,461.27,757.58,461.42,757.61,461.34z" class="st34"/></g></g><path d="M688.06,431.04c0,0,21.85-1.71,23.27-3.84c0,0,0.29,4.64-6.79,8.44S688.06,431.04,688.06,431.04z" class="st28"/><path d="M677.23,467.94c-3.61,0.92-7.98,1.65-10.61-0.99c10.69,1.25,21.81-1.57,30.61-7.76 c-3.53-0.68-6.82-2.58-9.16-5.31c0.47,0.18,0.88,0.29,1.26,0.38c3.1,1.14,6.19,2.28,9.29,3.43c-3.44-2.91-6.45-6.33-8.89-10.11 c4.57,0.15,9.12,1.02,13.43,2.57c-3.11-3.79-6.47-7.36-10.06-10.7c2.37,0.93,5.17,0.69,7.34-0.64c-2-0.46-3.83-2.48-4.82-4.12 c3.22,0.89,7.41,2.95,8.62,6.06c2.12-8.1-6.17-9.24-8.97-9.43c3.93,0.23,4.53-3.01,7.01-6.06c-11.88,2.96-21.22,3.89-32.8-0.07 c3.11-1.75,6.91-2.23,10.36-1.3c-16.01-5.54-32.51-11.16-49.43-10.3c2.49-1.04,4.99-2.07,7.48-3.11 c-8.71-2.49-18.27-1.86-26.59,1.73c2.01-2.9,4.02-5.79,6.03-8.69c-4.94,7.23-15.51,9.68-23.3,5.91 c-0.48-0.23-0.24-0.96,0.29-0.88c1.83,0.3,3.7,0.38,5.55,0.24c0.48-0.04,0.59-0.7,0.15-0.89c-4.56-1.94-9.45-6.15-13.69-6.63 c-4.49-0.52-14.24,4.66-18.86,6.44c-0.27,0.1-0.38,0.43-0.23,0.67c0.77,1.28,1.47,2.44,2.14,3.54c0.2,0.33-0.06,0.75-0.45,0.7 c-6.18-0.7-12.39-1.13-18.64-1.23c-7.05-0.12,2.56,0.54-5.81,12.76c0.66,3.59,7.06,6.66,8.21,10.19 c1.75,5.39-17.92,11.04-17.01,16.59c0.08,0.5,0.78,0.54,0.91,0.05c0.31-1.12,0.38-2.32,0.39-3.51c0-0.49,0.66-0.65,0.88-0.21 c0.5,0.99,0.73,2.13,1.12,3.41c0.06,0.2,0.26,0.34,0.47,0.33c2.36-0.1,4.11,0.03,6.18,0.3c0.53,0.07,0.54,0.86,0.01,0.92 c-0.01,0-0.02,0-0.04,0c-0.44,0.05-0.58,0.61-0.21,0.85c7.9,5.28,17.56,7.88,27.04,7.26c-1.48-1.52-3.3-2.71-5.3-3.44 c11.65,3.96,22.75,9.51,32.92,16.44c-1.65-2.64-3.8-4.97-6.29-6.84c12.57,8.55,28.58,11.92,43.53,9.11 c-3.05-0.22-6.04-1.15-8.67-2.7C644.89,475.21,661.73,473.49,677.23,467.94z" class="st6"/><path d="M697.23,459.19c0.52-0.27-4.96-0.3-9.37-5.48c1.81,0.62,10.49,4.12,10.75,3.97 c-0.04-0.04-5.68-4.74-8.83-10.02c0,0,6.64,0,13.37,2.48c-4.05-3.63-4.54-4.31-10-5.62c-7.03-1.69-14.3,4.48-20.97,1.88 c2.72,1.7,5.58,2.76,8.91,1.87c-1.85,1.86-4.37,2.92-6.96,3.12c-1.8,0.14-4.19,0.09-5.98-0.44c-1.74-0.51-2.53-1.68-3.82-2.35 c0.02,0.11,0.05,0.22,0.08,0.32c-1.61-1.39-3.17-2.84-4.66-4.36c1.84,4.03,4.77,7.55,8.39,10.09 c-11.96-2.23-23.1-8.66-31.01-17.9c2.34,6.53,7.11,12.16,13.16,15.55c-15.2-0.38-30.11-7.41-40.09-18.88 c0.75,3.46,5.71,13.33,6.4,14.26c-1.51-5.55-49.1-15.77-47.69-35.07c0.92-12.59-19.21-1.15-19.35-1.15 c-7.58,0.05-10.26-13.73-15.44-6.76c-2.18,2.93-3.66,49.66-3.66,48.47c0-0.49,0.66-0.65,0.88-0.21c0.34,0.66,5.93,5.04,3.23,3.51 c-7.6-3.54,4.48,8.5,6.82,9.72c9.94,5.19,20.74,8.72,31.84,10.37c-3.85-2.06-7.7-4.11-11.56-6.17 c25.98,9.84,54.2,13.71,81.87,11.21c-4.28-1.28-8.55-2.57-12.83-3.85c10.39,1.69,21.12-0.33,30.93-4.18 c2.25-0.88,4.45-1.86,6.62-2.9c3.03-0.78,6.01-1.69,8.96-2.74c-1.65,0.42-3.45,0.79-5.17,0.83c1.04-0.55,2.06-1.11,3.09-1.68 c7.63-0.61,15.1-3.18,21.44-7.47C696.36,459.79,697.81,458.96,697.23,459.19z" class="st29"/></g><g><ellipse cx="553.27" cy="498.4" class="st42" rx="37.44" ry="5.07"/><g><path fill="#f05a28" d="M564.24,436.03c-13.69,0-24.79,2.11-24.79,4.72v56.67c0,2.61,11.1,4.72,24.79,4.72s24.79-2.11,24.79-4.72 v-56.67C589.03,438.14,577.93,436.03,564.24,436.03z"/><path fill="#b22d24" d="M564.24,445.47c9.26,0,17.31-0.97,21.57-2.4c-2.76-1.77-11.37-3.07-21.57-3.07s-18.81,1.29-21.57,3.07 C546.92,444.5,554.98,445.47,564.24,445.47z"/><path fill="none" stroke="#f05a28" stroke-miterlimit="10" stroke-width="6.607" d="M543.19,457.67c-14.45-11.47-24.19-0.43-14.53,10.76c3.93,4.55,14.23,14.09,13.84,19.74"/></g></g></g></g></svg>